solid OpenSCAD_Model
  facet normal 0.860174 0.210296 -0.464626
    outer loop
      vertex 54.1753 48.7796 32.4
      vertex 64.445 6.77344 32.4
      vertex 48.6 0 0
    endloop
  endfacet
  facet normal 0.304173 0.847732 -0.434545
    outer loop
      vertex 54.1753 48.7796 32.4
      vertex 15.0182 46.2213 0
      vertex 13.4727 63.384 32.4
    endloop
  endfacet
  facet normal 0.0658037 0.883058 -0.464628
    outer loop
      vertex 13.4727 63.384 32.4
      vertex 15.0182 46.2213 0
      vertex -29.6511 66.5975 32.4
    endloop
  endfacet
  facet normal -0.712249 0.551248 -0.434543
    outer loop
      vertex -29.6511 66.5975 32.4
      vertex -39.3182 28.5664 0
      vertex -56.1184 32.4 32.4
    endloop
  endfacet
  facet normal -0.819504 0.335463 -0.464626
    outer loop
      vertex -56.1184 32.4 32.4
      vertex -39.3182 28.5664 0
      vertex -72.5006 -7.62012 32.4
    endloop
  endfacet
  facet normal -0.744366 -0.507041 -0.434544
    outer loop
      vertex -39.3182 -28.5664 0
      vertex -48.1558 -43.3597 32.4
      vertex -72.5006 -7.62012 32.4
    endloop
  endfacet
  facet normal -0.572285 -0.67573 -0.464627
    outer loop
      vertex -39.3182 -28.5664 0
      vertex -15.1568 -71.307 32.4
      vertex -48.1558 -43.3597 32.4
    endloop
  endfacet
  facet normal 0.252206 -0.864618 -0.434544
    outer loop
      vertex 15.0182 -46.2213 0
      vertex 26.3565 -59.1977 32.4
      vertex -15.1568 -71.307 32.4
    endloop
  endfacet
  facet normal 0.465811 -0.753089 -0.464626
    outer loop
      vertex 63.1333 -36.45 32.4
      vertex 26.3565 -59.1977 32.4
      vertex 15.0182 -46.2213 0
    endloop
  endfacet
  facet normal 0.900237 -0.0273194 -0.434543
    outer loop
      vertex 64.445 6.77344 32.4
      vertex 63.1333 -36.45 32.4
      vertex 48.6 0 0
    endloop
  endfacet
  facet normal 0.864971 0.499391 -0.0493298
    outer loop
      vertex 74.984 15.9383 64.8
      vertex 54.1753 48.7796 32.4
      vertex 51.295 56.9689 64.8
    endloop
  endfacet
  facet normal 0.399237 0.896699 -0.191155
    outer loop
      vertex 51.295 56.9689 64.8
      vertex 54.1753 48.7796 32.4
      vertex 8.01307 76.2393 64.8
    endloop
  endfacet
  facet normal -0.20766 0.976956 -0.0493298
    outer loop
      vertex 8.01307 76.2393 64.8
      vertex -29.6511 66.5975 32.4
      vertex -38.3296 66.3888 64.8
    endloop
  endfacet
  facet normal -0.729441 0.656792 -0.191154
    outer loop
      vertex -38.3296 66.3888 64.8
      vertex -29.6511 66.5975 32.4
      vertex -70.0317 31.1801 64.8
    endloop
  endfacet
  facet normal -0.993311 0.1044 -0.0493324
    outer loop
      vertex -70.0317 31.1801 64.8
      vertex -72.5006 -7.62012 32.4
      vertex -74.984 -15.9383 64.8
    endloop
  endfacet
  facet normal -0.850056 -0.490779 -0.191155
    outer loop
      vertex -72.5006 -7.62012 32.4
      vertex -51.295 -56.9689 64.8
      vertex -74.984 -15.9383 64.8
    endloop
  endfacet
  facet normal -0.406242 -0.912433 -0.0493305
    outer loop
      vertex -15.1568 -71.307 32.4
      vertex -8.01307 -76.2393 64.8
      vertex -51.295 -56.9689 64.8
    endloop
  endfacet
  facet normal 0.204079 -0.96011 -0.191155
    outer loop
      vertex 38.3296 -66.3888 64.8
      vertex -8.01307 -76.2393 64.8
      vertex -15.1568 -71.307 32.4
    endloop
  endfacet
  facet normal 0.74224 -0.668316 -0.0493304
    outer loop
      vertex 63.1333 -36.45 32.4
      vertex 70.0317 -31.1801 64.8
      vertex 38.3296 -66.3888 64.8
    endloop
  endfacet
  facet normal 0.976183 -0.1026 -0.191155
    outer loop
      vertex 74.984 15.9383 64.8
      vertex 70.0317 -31.1801 64.8
      vertex 63.1333 -36.45 32.4
    endloop
  endfacet
  facet normal 0.870707 0.456402 -0.183209
    outer loop
      vertex 77.0229 24.9743 97
      vertex 74.984 15.9383 64.8
      vertex 52.5112 71.7368 97
    endloop
  endfacet
  facet normal 0.166951 0.980592 -0.102793
    outer loop
      vertex 52.0978 72.1091 97
      vertex 8.01307 76.2393 64.8
      vertex 0.0494633 80.9706 97
    endloop
  endfacet
  facet normal -0.164999 0.969129 -0.183206
    outer loop
      vertex 0.0494633 80.9706 97
      vertex 8.01307 76.2393 64.8
      vertex -51.9989 72.1091 97
    endloop
  endfacet
  facet normal -0.881008 0.461799 -0.102793
    outer loop
      vertex -52.4807 71.8309 97
      vertex -70.0317 31.1801 64.8
      vertex -76.9923 25.0683 97
    endloop
  endfacet
  facet normal -0.972684 0.142553 -0.183205
    outer loop
      vertex -76.9923 25.0683 97
      vertex -70.0317 31.1801 64.8
      vertex -84.6483 -27.171 97
    endloop
  endfacet
  facet normal -0.711444 -0.695183 -0.102795
    outer loop
      vertex -51.295 -56.9689 64.8
      vertex -47.6334 -65.4775 97
      vertex -84.5327 -27.7151 97
    endloop
  endfacet
  facet normal -0.436152 -0.881026 -0.183207
    outer loop
      vertex -0.316636 -88.9017 97
      vertex -47.6334 -65.4775 97
      vertex -51.295 -56.9689 64.8
    endloop
  endfacet
  facet normal 0.44131 -0.891447 -0.102796
    outer loop
      vertex 38.3296 -66.3888 64.8
      vertex 47.5533 -65.5357 97
      vertex 0.236602 -88.9598 97
    endloop
  endfacet
  facet normal 0.703126 -0.687058 -0.183208
    outer loop
      vertex 84.4527 -27.7733 97
      vertex 47.5533 -65.5357 97
      vertex 38.3296 -66.3888 64.8
    endloop
  endfacet
  facet normal 0.984189 0.144239 -0.102795
    outer loop
      vertex 77.0229 24.9743 97
      vertex 84.6789 -27.2651 97
      vertex 74.984 15.9383 64.8
    endloop
  endfacet
  facet normal 0.805082 0.261587 -0.532367
    outer loop
      vertex 54.1753 48.7796 32.4
      vertex 48.6 0 0
      vertex 39.3182 28.5664 0
    endloop
  endfacet
  facet normal 0.464762 0.639693 -0.6122
    outer loop
      vertex 54.1753 48.7796 32.4
      vertex 39.3182 28.5664 0
      vertex 15.0182 46.2213 0
    endloop
  endfacet
  facet normal 0 0.846513 -0.532368
    outer loop
      vertex 15.0182 46.2213 0
      vertex -15.0182 46.2213 0
      vertex -29.6511 66.5975 32.4
    endloop
  endfacet
  facet normal -0.464762 0.639693 -0.612201
    outer loop
      vertex -29.6511 66.5975 32.4
      vertex -15.0182 46.2213 0
      vertex -39.3182 28.5664 0
    endloop
  endfacet
  facet normal -0.805083 0.261588 -0.532365
    outer loop
      vertex -39.3182 28.5664 0
      vertex -48.6 0 0
      vertex -72.5006 -7.62012 32.4
    endloop
  endfacet
  facet normal -0.752004 -0.244341 -0.612199
    outer loop
      vertex -48.6 0 0
      vertex -39.3182 -28.5664 0
      vertex -72.5006 -7.62012 32.4
    endloop
  endfacet
  facet normal -0.497566 -0.684844 -0.532369
    outer loop
      vertex -15.0182 -46.2213 0
      vertex -15.1568 -71.307 32.4
      vertex -39.3182 -28.5664 0
    endloop
  endfacet
  facet normal 0 -0.790702 -0.612201
    outer loop
      vertex -15.0182 -46.2213 0
      vertex 15.0182 -46.2213 0
      vertex -15.1568 -71.307 32.4
    endloop
  endfacet
  facet normal 0.497567 -0.684846 -0.532366
    outer loop
      vertex 39.3182 -28.5664 0
      vertex 63.1333 -36.45 32.4
      vertex 15.0182 -46.2213 0
    endloop
  endfacet
  facet normal 0.752003 -0.244341 -0.612201
    outer loop
      vertex 48.6 0 0
      vertex 63.1333 -36.45 32.4
      vertex 39.3182 -28.5664 0
    endloop
  endfacet
  facet normal 0.907088 0.221766 -0.357786
    outer loop
      vertex 74.984 15.9383 64.8
      vertex 64.445 6.77344 32.4
      vertex 54.1753 48.7796 32.4
    endloop
  endfacet
  facet normal 0.321979 0.897359 -0.301788
    outer loop
      vertex 54.1753 48.7796 32.4
      vertex 13.4727 63.384 32.4
      vertex 8.01307 76.2393 64.8
    endloop
  endfacet
  facet normal 0.0693928 0.931222 -0.357786
    outer loop
      vertex 8.01307 76.2393 64.8
      vertex 13.4727 63.384 32.4
      vertex -29.6511 66.5975 32.4
    endloop
  endfacet
  facet normal -0.753943 0.583517 -0.30179
    outer loop
      vertex -29.6511 66.5975 32.4
      vertex -56.1184 32.4 32.4
      vertex -70.0317 31.1801 64.8
    endloop
  endfacet
  facet normal -0.8642 0.35376 -0.357788
    outer loop
      vertex -70.0317 31.1801 64.8
      vertex -56.1184 32.4 32.4
      vertex -72.5006 -7.62012 32.4
    endloop
  endfacet
  facet normal -0.787942 -0.536724 -0.301787
    outer loop
      vertex -48.1558 -43.3597 32.4
      vertex -51.295 -56.9689 64.8
      vertex -72.5006 -7.62012 32.4
    endloop
  endfacet
  facet normal -0.603499 -0.712586 -0.357785
    outer loop
      vertex -48.1558 -43.3597 32.4
      vertex -15.1568 -71.307 32.4
      vertex -51.295 -56.9689 64.8
    endloop
  endfacet
  facet normal 0.26697 -0.915232 -0.30179
    outer loop
      vertex 26.3565 -59.1977 32.4
      vertex 38.3296 -66.3888 64.8
      vertex -15.1568 -71.307 32.4
    endloop
  endfacet
  facet normal 0.491217 -0.794163 -0.357787
    outer loop
      vertex 63.1333 -36.45 32.4
      vertex 38.3296 -66.3888 64.8
      vertex 26.3565 -59.1977 32.4
    endloop
  endfacet
  facet normal 0.952936 -0.0289187 -0.301789
    outer loop
      vertex 64.445 6.77344 32.4
      vertex 74.984 15.9383 64.8
      vertex 63.1333 -36.45 32.4
    endloop
  endfacet
  facet normal 0.837815 0.483571 -0.253425
    outer loop
      vertex 52.5112 71.7368 97
      vertex 51.295 56.9689 64.8
      vertex 52.365 71.9901 97
    endloop
  endfacet
  facet normal 0.837744 0.483671 -0.253468
    outer loop
      vertex 51.295 56.9689 64.8
      vertex 52.5112 71.7368 97
      vertex 74.984 15.9383 64.8
    endloop
  endfacet
  facet normal 0.372429 0.836245 -0.402481
    outer loop
      vertex 51.295 56.9689 64.8
      vertex 52.0978 72.1091 97
      vertex 52.365 71.9901 97
    endloop
  endfacet
  facet normal 0.372336 0.836279 -0.402495
    outer loop
      vertex 52.0978 72.1091 97
      vertex 51.295 56.9689 64.8
      vertex 8.01307 76.2393 64.8
    endloop
  endfacet
  facet normal -0.201123 0.946204 -0.253471
    outer loop
      vertex -38.3296 66.3888 64.8
      vertex -51.9989 72.1091 97
      vertex 8.01307 76.2393 64.8
    endloop
  endfacet
  facet normal -0.201083 0.946216 -0.253457
    outer loop
      vertex -51.9989 72.1091 97
      vertex -38.3296 66.3888 64.8
      vertex -52.285 72.0483 97
    endloop
  endfacet
  facet normal -0.68036 0.61245 -0.402511
    outer loop
      vertex -38.3296 66.3888 64.8
      vertex -52.4807 71.8309 97
      vertex -52.285 72.0483 97
    endloop
  endfacet
  facet normal -0.680291 0.612537 -0.402495
    outer loop
      vertex -52.4807 71.8309 97
      vertex -38.3296 66.3888 64.8
      vertex -70.0317 31.1801 64.8
    endloop
  endfacet
  facet normal -0.962044 0.101114 -0.253469
    outer loop
      vertex -74.984 -15.9383 64.8
      vertex -84.6483 -27.171 97
      vertex -70.0317 31.1801 64.8
    endloop
  endfacet
  facet normal -0.962043 0.101233 -0.253427
    outer loop
      vertex -84.6483 -27.171 97
      vertex -74.984 -15.9383 64.8
      vertex -84.6789 -27.4618 97
    endloop
  endfacet
  facet normal -0.792843 -0.457614 -0.40248
    outer loop
      vertex -74.984 -15.9383 64.8
      vertex -84.5327 -27.7151 97
      vertex -84.6789 -27.4618 97
    endloop
  endfacet
  facet normal -0.792779 -0.45771 -0.402496
    outer loop
      vertex -84.5327 -27.7151 97
      vertex -74.984 -15.9383 64.8
      vertex -51.295 -56.9689 64.8
    endloop
  endfacet
  facet normal -0.393455 -0.883712 -0.253469
    outer loop
      vertex -8.01307 -76.2393 64.8
      vertex -0.316636 -88.9017 97
      vertex -51.295 -56.9689 64.8
    endloop
  endfacet
  facet normal -0.393302 -0.883764 -0.253526
    outer loop
      vertex -0.316636 -88.9017 97
      vertex -8.01307 -76.2393 64.8
      vertex -0.0494633 -89.0206 97
    endloop
  endfacet
  facet normal 0.190312 -0.895423 -0.402492
    outer loop
      vertex -8.01307 -76.2393 64.8
      vertex 0.236602 -88.9598 97
      vertex -0.0494633 -89.0206 97
    endloop
  endfacet
  facet normal 0.190328 -0.895418 -0.402494
    outer loop
      vertex 0.236602 -88.9598 97
      vertex -8.01307 -76.2393 64.8
      vertex 38.3296 -66.3888 64.8
    endloop
  endfacet
  facet normal 0.719094 -0.646986 -0.253599
    outer loop
      vertex 84.4527 -27.7733 97
      vertex 70.0317 -31.1801 64.8
      vertex 84.6483 -27.5559 97
    endloop
  endfacet
  facet normal 0.718876 -0.647279 -0.253471
    outer loop
      vertex 70.0317 -31.1801 64.8
      vertex 84.4527 -27.7733 97
      vertex 38.3296 -66.3888 64.8
    endloop
  endfacet
  facet normal 0.910403 -0.0957989 -0.402478
    outer loop
      vertex 70.0317 -31.1801 64.8
      vertex 84.6789 -27.2651 97
      vertex 84.6483 -27.5559 97
    endloop
  endfacet
  facet normal 0.910408 -0.0956869 -0.402494
    outer loop
      vertex 84.6789 -27.2651 97
      vertex 70.0317 -31.1801 64.8
      vertex 74.984 15.9383 64.8
    endloop
  endfacet
  facet normal 0 0 -1
    outer loop
      vertex 39.3182 -28.5664 0
      vertex 39.3182 28.5664 0
      vertex 48.6 0 0
    endloop
  endfacet
  facet normal 0 0 -1
    outer loop
      vertex 15.0182 -46.2213 0
      vertex 39.3182 28.5664 0
      vertex 39.3182 -28.5664 0
    endloop
  endfacet
  facet normal 0 0 -1
    outer loop
      vertex 15.0182 -46.2213 0
      vertex 15.0182 46.2213 0
      vertex 39.3182 28.5664 0
    endloop
  endfacet
  facet normal 0 0 -1
    outer loop
      vertex -15.0182 -46.2213 0
      vertex 15.0182 46.2213 0
      vertex 15.0182 -46.2213 0
    endloop
  endfacet
  facet normal 0 0 -1
    outer loop
      vertex -15.0182 -46.2213 0
      vertex -15.0182 46.2213 0
      vertex 15.0182 46.2213 0
    endloop
  endfacet
  facet normal 0 0 -1
    outer loop
      vertex -39.3182 -28.5664 0
      vertex -15.0182 46.2213 0
      vertex -15.0182 -46.2213 0
    endloop
  endfacet
  facet normal 0 0 -1
    outer loop
      vertex -39.3182 -28.5664 0
      vertex -39.3182 28.5664 0
      vertex -15.0182 46.2213 0
    endloop
  endfacet
  facet normal 0 -0 -1
    outer loop
      vertex -39.3182 28.5664 0
      vertex -39.3182 -28.5664 0
      vertex -48.6 0 0
    endloop
  endfacet
  facet normal -0.860173 -0.210297 0.464626
    outer loop
      vertex 47.6742 42.9261 40.512
      vertex 42.768 0 12
      vertex 56.7116 5.96063 40.512
    endloop
  endfacet
  facet normal -0.304172 -0.847733 0.434544
    outer loop
      vertex 47.6742 42.9261 40.512
      vertex 11.856 55.7779 40.512
      vertex 13.216 40.6748 12
    endloop
  endfacet
  facet normal -0.0658041 -0.883058 0.464626
    outer loop
      vertex 11.856 55.7779 40.512
      vertex -26.093 58.6058 40.512
      vertex 13.216 40.6748 12
    endloop
  endfacet
  facet normal 0.712249 -0.551247 0.434544
    outer loop
      vertex -26.093 58.6058 40.512
      vertex -49.3842 28.512 40.512
      vertex -34.6 25.1384 12
    endloop
  endfacet
  facet normal 0.819503 -0.335464 0.464626
    outer loop
      vertex -49.3842 28.512 40.512
      vertex -63.8006 -6.70571 40.512
      vertex -34.6 25.1384 12
    endloop
  endfacet
  facet normal 0.744365 0.507043 0.434544
    outer loop
      vertex -34.6 -25.1384 12
      vertex -63.8006 -6.70571 40.512
      vertex -42.3771 -38.1565 40.512
    endloop
  endfacet
  facet normal 0.572284 0.675731 0.464627
    outer loop
      vertex -34.6 -25.1384 12
      vertex -42.3771 -38.1565 40.512
      vertex -13.3379 -62.7501 40.512
    endloop
  endfacet
  facet normal -0.252205 0.864618 0.434543
    outer loop
      vertex 13.216 -40.6748 12
      vertex -13.3379 -62.7501 40.512
      vertex 23.1938 -52.094 40.512
    endloop
  endfacet
  facet normal -0.465812 0.753088 0.464627
    outer loop
      vertex 55.5573 -32.076 40.512
      vertex 13.216 -40.6748 12
      vertex 23.1938 -52.094 40.512
    endloop
  endfacet
  facet normal -0.900237 0.0273195 0.434543
    outer loop
      vertex 56.7116 5.96063 40.512
      vertex 42.768 0 12
      vertex 55.5573 -32.076 40.512
    endloop
  endfacet
  facet normal -0.864971 -0.499391 0.0493302
    outer loop
      vertex 65.9859 14.0257 69.024
      vertex 45.1396 50.1326 69.024
      vertex 47.6742 42.9261 40.512
    endloop
  endfacet
  facet normal -0.399238 -0.896699 0.191153
    outer loop
      vertex 45.1396 50.1326 69.024
      vertex 7.0515 67.0906 69.024
      vertex 47.6742 42.9261 40.512
    endloop
  endfacet
  facet normal 0.207659 -0.976957 0.0493315
    outer loop
      vertex 7.0515 67.0906 69.024
      vertex -33.7301 58.4222 69.024
      vertex -26.093 58.6058 40.512
    endloop
  endfacet
  facet normal 0.729442 -0.656791 0.191156
    outer loop
      vertex -33.7301 58.4222 69.024
      vertex -61.6279 27.4385 69.024
      vertex -26.093 58.6058 40.512
    endloop
  endfacet
  facet normal 0.993311 -0.1044 0.0493293
    outer loop
      vertex -61.6279 27.4385 69.024
      vertex -65.9859 -14.0257 69.024
      vertex -63.8006 -6.70571 40.512
    endloop
  endfacet
  facet normal 0.850057 0.49078 0.191152
    outer loop
      vertex -63.8006 -6.70571 40.512
      vertex -65.9859 -14.0257 69.024
      vertex -45.1396 -50.1326 69.024
    endloop
  endfacet
  facet normal 0.406243 0.912432 0.0493338
    outer loop
      vertex -13.3379 -62.7501 40.512
      vertex -45.1396 -50.1326 69.024
      vertex -7.0515 -67.0906 69.024
    endloop
  endfacet
  facet normal -0.204078 0.96011 0.191157
    outer loop
      vertex 33.7301 -58.4222 69.024
      vertex -13.3379 -62.7501 40.512
      vertex -7.0515 -67.0906 69.024
    endloop
  endfacet
  facet normal -0.742241 0.668315 0.0493313
    outer loop
      vertex 55.5573 -32.076 40.512
      vertex 33.7301 -58.4222 69.024
      vertex 61.6279 -27.4385 69.024
    endloop
  endfacet
  facet normal -0.976183 0.102599 0.191155
    outer loop
      vertex 65.9859 14.0257 69.024
      vertex 55.5573 -32.076 40.512
      vertex 61.6279 -27.4385 69.024
    endloop
  endfacet
  facet normal -0.870707 -0.456402 0.18321
    outer loop
      vertex 67.7574 21.8763 97
      vertex 46.4611 62.5046 97
      vertex 65.9859 14.0257 69.024
    endloop
  endfacet
  facet normal -0.16695 -0.980592 0.102792
    outer loop
      vertex 45.3532 63.5022 97
      vertex 0.132562 71.2012 97
      vertex 7.0515 67.0906 69.024
    endloop
  endfacet
  facet normal 0.164998 -0.969129 0.183204
    outer loop
      vertex 0.132562 71.2012 97
      vertex -45.0881 63.5022 97
      vertex 7.0515 67.0906 69.024
    endloop
  endfacet
  facet normal 0.881007 -0.4618 0.102793
    outer loop
      vertex -46.3792 62.7567 97
      vertex -67.6754 22.1285 97
      vertex -61.6279 27.4385 69.024
    endloop
  endfacet
  facet normal 0.972684 -0.142553 0.183205
    outer loop
      vertex -67.6754 22.1285 97
      vertex -74.3271 -23.2581 97
      vertex -61.6279 27.4385 69.024
    endloop
  endfacet
  facet normal 0.711443 0.695184 0.102797
    outer loop
      vertex -45.1396 -50.1326 69.024
      vertex -74.0172 -24.7164 97
      vertex -41.9583 -57.5251 97
    endloop
  endfacet
  facet normal 0.436151 0.881026 0.183209
    outer loop
      vertex -0.848583 -77.8764 97
      vertex -45.1396 -50.1326 69.024
      vertex -41.9583 -57.5251 97
    endloop
  endfacet
  facet normal -0.441312 0.891447 0.102792
    outer loop
      vertex 33.7301 -58.4222 69.024
      vertex 0.634094 -78.0323 97
      vertex 41.7438 -57.6809 97
    endloop
  endfacet
  facet normal -0.703127 0.687058 0.183205
    outer loop
      vertex 73.8027 -24.8722 97
      vertex 33.7301 -58.4222 69.024
      vertex 41.7438 -57.6809 97
    endloop
  endfacet
  facet normal -0.984189 -0.14424 0.102797
    outer loop
      vertex 67.7574 21.8763 97
      vertex 65.9859 14.0257 69.024
      vertex 74.4091 -23.5102 97
    endloop
  endfacet
  facet normal -0.805082 -0.261588 0.532367
    outer loop
      vertex 47.6742 42.9261 40.512
      vertex 34.6 25.1384 12
      vertex 42.768 0 12
    endloop
  endfacet
  facet normal -0.464764 -0.639692 0.6122
    outer loop
      vertex 47.6742 42.9261 40.512
      vertex 13.216 40.6748 12
      vertex 34.6 25.1384 12
    endloop
  endfacet
  facet normal 0 -0.846514 0.532367
    outer loop
      vertex 13.216 40.6748 12
      vertex -26.093 58.6058 40.512
      vertex -13.216 40.6748 12
    endloop
  endfacet
  facet normal 0.464763 -0.639691 0.612201
    outer loop
      vertex -26.093 58.6058 40.512
      vertex -34.6 25.1384 12
      vertex -13.216 40.6748 12
    endloop
  endfacet
  facet normal 0.805082 -0.261588 0.532367
    outer loop
      vertex -34.6 25.1384 12
      vertex -63.8006 -6.70571 40.512
      vertex -42.768 0 12
    endloop
  endfacet
  facet normal 0.752003 0.244342 0.6122
    outer loop
      vertex -42.768 0 12
      vertex -63.8006 -6.70571 40.512
      vertex -34.6 -25.1384 12
    endloop
  endfacet
  facet normal 0.497569 0.684845 0.532365
    outer loop
      vertex -13.216 -40.6748 12
      vertex -34.6 -25.1384 12
      vertex -13.3379 -62.7501 40.512
    endloop
  endfacet
  facet normal -0 0.790704 0.612199
    outer loop
      vertex -13.216 -40.6748 12
      vertex -13.3379 -62.7501 40.512
      vertex 13.216 -40.6748 12
    endloop
  endfacet
  facet normal -0.497568 0.684843 0.532367
    outer loop
      vertex 34.6 -25.1384 12
      vertex 13.216 -40.6748 12
      vertex 55.5573 -32.076 40.512
    endloop
  endfacet
  facet normal -0.752002 0.244341 0.612201
    outer loop
      vertex 42.768 0 12
      vertex 34.6 -25.1384 12
      vertex 55.5573 -32.076 40.512
    endloop
  endfacet
  facet normal -0.907088 -0.221767 0.357785
    outer loop
      vertex 65.9859 14.0257 69.024
      vertex 47.6742 42.9261 40.512
      vertex 56.7116 5.96063 40.512
    endloop
  endfacet
  facet normal -0.321978 -0.897359 0.301789
    outer loop
      vertex 47.6742 42.9261 40.512
      vertex 7.0515 67.0906 69.024
      vertex 11.856 55.7779 40.512
    endloop
  endfacet
  facet normal -0.0693931 -0.931221 0.357787
    outer loop
      vertex 7.0515 67.0906 69.024
      vertex -26.093 58.6058 40.512
      vertex 11.856 55.7779 40.512
    endloop
  endfacet
  facet normal 0.753943 -0.583517 0.30179
    outer loop
      vertex -26.093 58.6058 40.512
      vertex -61.6279 27.4385 69.024
      vertex -49.3842 28.512 40.512
    endloop
  endfacet
  facet normal 0.8642 -0.353761 0.357788
    outer loop
      vertex -61.6279 27.4385 69.024
      vertex -63.8006 -6.70571 40.512
      vertex -49.3842 28.512 40.512
    endloop
  endfacet
  facet normal 0.78794 0.536726 0.301787
    outer loop
      vertex -42.3771 -38.1565 40.512
      vertex -63.8006 -6.70571 40.512
      vertex -45.1396 -50.1326 69.024
    endloop
  endfacet
  facet normal 0.603497 0.712587 0.357785
    outer loop
      vertex -42.3771 -38.1565 40.512
      vertex -45.1396 -50.1326 69.024
      vertex -13.3379 -62.7501 40.512
    endloop
  endfacet
  facet normal -0.266968 0.915233 0.30179
    outer loop
      vertex 23.1938 -52.094 40.512
      vertex -13.3379 -62.7501 40.512
      vertex 33.7301 -58.4222 69.024
    endloop
  endfacet
  facet normal -0.491218 0.794162 0.357787
    outer loop
      vertex 55.5573 -32.076 40.512
      vertex 23.1938 -52.094 40.512
      vertex 33.7301 -58.4222 69.024
    endloop
  endfacet
  facet normal -0.952936 0.0289188 0.301788
    outer loop
      vertex 56.7116 5.96063 40.512
      vertex 55.5573 -32.076 40.512
      vertex 65.9859 14.0257 69.024
    endloop
  endfacet
  facet normal -0.837809 -0.483579 0.253432
    outer loop
      vertex 45.1396 50.1326 69.024
      vertex 46.4611 62.5046 97
      vertex 46.0693 63.1834 97
    endloop
  endfacet
  facet normal -0.837744 -0.483671 0.253469
    outer loop
      vertex 46.4611 62.5046 97
      vertex 45.1396 50.1326 69.024
      vertex 65.9859 14.0257 69.024
    endloop
  endfacet
  facet normal -0.372337 -0.836279 0.402496
    outer loop
      vertex 45.1396 50.1326 69.024
      vertex 45.3532 63.5022 97
      vertex 7.0515 67.0906 69.024
    endloop
  endfacet
  facet normal -0.372307 -0.836289 0.402501
    outer loop
      vertex 45.3532 63.5022 97
      vertex 45.1396 50.1326 69.024
      vertex 46.0693 63.1834 97
    endloop
  endfacet
  facet normal 0.20116 -0.946193 0.253483
    outer loop
      vertex -33.7301 58.4222 69.024
      vertex -45.0881 63.5022 97
      vertex -45.8548 63.3392 97
    endloop
  endfacet
  facet normal 0.201122 -0.946205 0.25347
    outer loop
      vertex -45.0881 63.5022 97
      vertex -33.7301 58.4222 69.024
      vertex 7.0515 67.0906 69.024
    endloop
  endfacet
  facet normal 0.680338 -0.612479 0.402504
    outer loop
      vertex -46.3792 62.7567 97
      vertex -33.7301 58.4222 69.024
      vertex -45.8548 63.3392 97
    endloop
  endfacet
  facet normal 0.680293 -0.612537 0.402493
    outer loop
      vertex -33.7301 58.4222 69.024
      vertex -46.3792 62.7567 97
      vertex -61.6279 27.4385 69.024
    endloop
  endfacet
  facet normal 0.962044 -0.101113 0.25347
    outer loop
      vertex -74.3271 -23.2581 97
      vertex -65.9859 -14.0257 69.024
      vertex -61.6279 27.4385 69.024
    endloop
  endfacet
  facet normal 0.962043 -0.101203 0.25344
    outer loop
      vertex -65.9859 -14.0257 69.024
      vertex -74.3271 -23.2581 97
      vertex -74.4091 -24.0376 97
    endloop
  endfacet
  facet normal 0.792781 0.457706 0.402497
    outer loop
      vertex -74.0172 -24.7164 97
      vertex -65.9859 -14.0257 69.024
      vertex -74.4091 -24.0376 97
    endloop
  endfacet
  facet normal 0.792778 0.45771 0.402498
    outer loop
      vertex -65.9859 -14.0257 69.024
      vertex -74.0172 -24.7164 97
      vertex -45.1396 -50.1326 69.024
    endloop
  endfacet
  facet normal 0.393462 0.88371 0.253464
    outer loop
      vertex -7.0515 -67.0906 69.024
      vertex -0.848583 -77.8764 97
      vertex -0.132562 -78.1952 97
    endloop
  endfacet
  facet normal 0.393456 0.883712 0.253466
    outer loop
      vertex -0.848583 -77.8764 97
      vertex -7.0515 -67.0906 69.024
      vertex -45.1396 -50.1326 69.024
    endloop
  endfacet
  facet normal -0.190327 0.895418 0.402494
    outer loop
      vertex -7.0515 -67.0906 69.024
      vertex 0.634094 -78.0323 97
      vertex 33.7301 -58.4222 69.024
    endloop
  endfacet
  facet normal -0.190263 0.895437 0.402484
    outer loop
      vertex 0.634094 -78.0323 97
      vertex -7.0515 -67.0906 69.024
      vertex -0.132562 -78.1952 97
    endloop
  endfacet
  facet normal -0.718923 0.647216 0.253496
    outer loop
      vertex 61.6279 -27.4385 69.024
      vertex 73.8027 -24.8722 97
      vertex 74.3271 -24.2897 97
    endloop
  endfacet
  facet normal -0.718877 0.647278 0.25347
    outer loop
      vertex 73.8027 -24.8722 97
      vertex 61.6279 -27.4385 69.024
      vertex 33.7301 -58.4222 69.024
    endloop
  endfacet
  facet normal -0.910407 0.0956863 0.402495
    outer loop
      vertex 61.6279 -27.4385 69.024
      vertex 74.4091 -23.5102 97
      vertex 65.9859 14.0257 69.024
    endloop
  endfacet
  facet normal -0.910404 0.0957706 0.402482
    outer loop
      vertex 74.4091 -23.5102 97
      vertex 61.6279 -27.4385 69.024
      vertex 74.3271 -24.2897 97
    endloop
  endfacet
  facet normal 0 0 1
    outer loop
      vertex 34.6 25.1384 12
      vertex 34.6 -25.1384 12
      vertex 42.768 0 12
    endloop
  endfacet
  facet normal 0 0 1
    outer loop
      vertex 13.216 40.6748 12
      vertex 34.6 -25.1384 12
      vertex 34.6 25.1384 12
    endloop
  endfacet
  facet normal 0 0 1
    outer loop
      vertex 13.216 40.6748 12
      vertex 13.216 -40.6748 12
      vertex 34.6 -25.1384 12
    endloop
  endfacet
  facet normal -0 0 1
    outer loop
      vertex -13.216 40.6748 12
      vertex 13.216 -40.6748 12
      vertex 13.216 40.6748 12
    endloop
  endfacet
  facet normal 0 0 1
    outer loop
      vertex -13.216 40.6748 12
      vertex -13.216 -40.6748 12
      vertex 13.216 -40.6748 12
    endloop
  endfacet
  facet normal -0 0 1
    outer loop
      vertex -34.6 25.1384 12
      vertex -13.216 -40.6748 12
      vertex -13.216 40.6748 12
    endloop
  endfacet
  facet normal 0 0 1
    outer loop
      vertex -34.6 25.1384 12
      vertex -34.6 -25.1384 12
      vertex -13.216 -40.6748 12
    endloop
  endfacet
  facet normal 0 -0 1
    outer loop
      vertex -34.6 -25.1384 12
      vertex -34.6 25.1384 12
      vertex -42.768 0 12
    endloop
  endfacet
  facet normal 0 0 1
    outer loop
      vertex 77.0229 24.9743 97
      vertex 67.7574 21.8763 97
      vertex 74.4091 -23.5102 97
    endloop
  endfacet
  facet normal -0 0 1
    outer loop
      vertex 46.4611 62.5046 97
      vertex 77.0229 24.9743 97
      vertex 52.5112 71.7368 97
    endloop
  endfacet
  facet normal 0 0 1
    outer loop
      vertex 52.0978 72.1091 97
      vertex 52.5112 71.7368 97
      vertex 52.365 71.9901 97
    endloop
  endfacet
  facet normal 0 0 1
    outer loop
      vertex 52.5112 71.7368 97
      vertex 52.0978 72.1091 97
      vertex 46.0693 63.1834 97
    endloop
  endfacet
  facet normal 0 0 1
    outer loop
      vertex 77.0229 24.9743 97
      vertex 46.4611 62.5046 97
      vertex 67.7574 21.8763 97
    endloop
  endfacet
  facet normal 0 0 1
    outer loop
      vertex 52.5112 71.7368 97
      vertex 46.0693 63.1834 97
      vertex 46.4611 62.5046 97
    endloop
  endfacet
  facet normal 0 0 1
    outer loop
      vertex 52.0978 72.1091 97
      vertex 45.3532 63.5022 97
      vertex 46.0693 63.1834 97
    endloop
  endfacet
  facet normal 0 0 1
    outer loop
      vertex 0.0494633 80.9706 97
      vertex 45.3532 63.5022 97
      vertex 52.0978 72.1091 97
    endloop
  endfacet
  facet normal 0 0 1
    outer loop
      vertex 45.3532 63.5022 97
      vertex 0.0494633 80.9706 97
      vertex 0.132562 71.2012 97
    endloop
  endfacet
  facet normal 0 0 1
    outer loop
      vertex 0.0494633 80.9706 97
      vertex -45.0881 63.5022 97
      vertex 0.132562 71.2012 97
    endloop
  endfacet
  facet normal -0 0 1
    outer loop
      vertex -51.9989 72.1091 97
      vertex -45.0881 63.5022 97
      vertex 0.0494633 80.9706 97
    endloop
  endfacet
  facet normal 0 0 1
    outer loop
      vertex -45.0881 63.5022 97
      vertex -51.9989 72.1091 97
      vertex -45.8548 63.3392 97
    endloop
  endfacet
  facet normal -0 0 1
    outer loop
      vertex -52.4807 71.8309 97
      vertex -45.8548 63.3392 97
      vertex -51.9989 72.1091 97
    endloop
  endfacet
  facet normal 0 0 1
    outer loop
      vertex -52.4807 71.8309 97
      vertex -51.9989 72.1091 97
      vertex -52.285 72.0483 97
    endloop
  endfacet
  facet normal 0 0 1
    outer loop
      vertex -45.8548 63.3392 97
      vertex -52.4807 71.8309 97
      vertex -46.3792 62.7567 97
    endloop
  endfacet
  facet normal 0 0 1
    outer loop
      vertex -76.9923 25.0683 97
      vertex -46.3792 62.7567 97
      vertex -52.4807 71.8309 97
    endloop
  endfacet
  facet normal 0 0 1
    outer loop
      vertex -84.6483 -27.171 97
      vertex -74.3271 -23.2581 97
      vertex -76.9923 25.0683 97
    endloop
  endfacet
  facet normal 0 0 1
    outer loop
      vertex -67.6754 22.1285 97
      vertex -76.9923 25.0683 97
      vertex -74.3271 -23.2581 97
    endloop
  endfacet
  facet normal 0 0 1
    outer loop
      vertex -46.3792 62.7567 97
      vertex -76.9923 25.0683 97
      vertex -67.6754 22.1285 97
    endloop
  endfacet
  facet normal 0 0 1
    outer loop
      vertex 84.6789 -27.2651 97
      vertex 84.4527 -27.7733 97
      vertex 84.6483 -27.5559 97
    endloop
  endfacet
  facet normal -0 0 1
    outer loop
      vertex 74.4091 -23.5102 97
      vertex 84.6789 -27.2651 97
      vertex 77.0229 24.9743 97
    endloop
  endfacet
  facet normal -0 0 1
    outer loop
      vertex 74.3271 -24.2897 97
      vertex 84.6789 -27.2651 97
      vertex 74.4091 -23.5102 97
    endloop
  endfacet
  facet normal 0 0 1
    outer loop
      vertex 84.6789 -27.2651 97
      vertex 74.3271 -24.2897 97
      vertex 84.4527 -27.7733 97
    endloop
  endfacet
  facet normal -0 0 1
    outer loop
      vertex 73.8027 -24.8722 97
      vertex 84.4527 -27.7733 97
      vertex 74.3271 -24.2897 97
    endloop
  endfacet
  facet normal 0 0 1
    outer loop
      vertex 73.8027 -24.8722 97
      vertex 47.5533 -65.5357 97
      vertex 84.4527 -27.7733 97
    endloop
  endfacet
  facet normal -0 0 1
    outer loop
      vertex 41.7438 -57.6809 97
      vertex 47.5533 -65.5357 97
      vertex 73.8027 -24.8722 97
    endloop
  endfacet
  facet normal 0 0 1
    outer loop
      vertex 0.634094 -78.0323 97
      vertex 47.5533 -65.5357 97
      vertex 41.7438 -57.6809 97
    endloop
  endfacet
  facet normal -0 0 1
    outer loop
      vertex 0.634094 -78.0323 97
      vertex 0.236602 -88.9598 97
      vertex 47.5533 -65.5357 97
    endloop
  endfacet
  facet normal -0 0 1
    outer loop
      vertex -0.132562 -78.1952 97
      vertex 0.236602 -88.9598 97
      vertex 0.634094 -78.0323 97
    endloop
  endfacet
  facet normal 0 0 1
    outer loop
      vertex 0.236602 -88.9598 97
      vertex -0.132562 -78.1952 97
      vertex -0.316636 -88.9017 97
    endloop
  endfacet
  facet normal 0 0 1
    outer loop
      vertex 0.236602 -88.9598 97
      vertex -0.316636 -88.9017 97
      vertex -0.0494633 -89.0206 97
    endloop
  endfacet
  facet normal 0 0 1
    outer loop
      vertex -0.848583 -77.8764 97
      vertex -0.316636 -88.9017 97
      vertex -0.132562 -78.1952 97
    endloop
  endfacet
  facet normal -0 0 1
    outer loop
      vertex -47.6334 -65.4775 97
      vertex -0.848583 -77.8764 97
      vertex -41.9583 -57.5251 97
    endloop
  endfacet
  facet normal 0 0 1
    outer loop
      vertex -0.848583 -77.8764 97
      vertex -47.6334 -65.4775 97
      vertex -0.316636 -88.9017 97
    endloop
  endfacet
  facet normal 0 0 1
    outer loop
      vertex -74.0172 -24.7164 97
      vertex -47.6334 -65.4775 97
      vertex -41.9583 -57.5251 97
    endloop
  endfacet
  facet normal 0 0 1
    outer loop
      vertex -74.0172 -24.7164 97
      vertex -84.5327 -27.7151 97
      vertex -47.6334 -65.4775 97
    endloop
  endfacet
  facet normal 0 0 1
    outer loop
      vertex -74.4091 -24.0376 97
      vertex -84.5327 -27.7151 97
      vertex -74.0172 -24.7164 97
    endloop
  endfacet
  facet normal 0 0 1
    outer loop
      vertex -74.3271 -23.2581 97
      vertex -84.6483 -27.171 97
      vertex -74.4091 -24.0376 97
    endloop
  endfacet
  facet normal 0 0 1
    outer loop
      vertex -74.4091 -24.0376 97
      vertex -84.6483 -27.171 97
      vertex -84.5327 -27.7151 97
    endloop
  endfacet
  facet normal 0 0 1
    outer loop
      vertex -84.5327 -27.7151 97
      vertex -84.6483 -27.171 97
      vertex -84.6789 -27.4618 97
    endloop
  endfacet
endsolid OpenSCAD_Model
