solid OpenSCAD_Model
  facet normal 1 0 0
    outer loop
      vertex 60 0.5 20
      vertex 60 0 20
      vertex 60 0.5 0.799999
    endloop
  endfacet
  facet normal 1 -0 0
    outer loop
      vertex 60 0.5 0.799999
      vertex 60 20 0
      vertex 60 20 0.799999
    endloop
  endfacet
  facet normal 1 0 0
    outer loop
      vertex 60 0.5 0.799999
      vertex 60 0 0
      vertex 60 20 0
    endloop
  endfacet
  facet normal 1 0 0
    outer loop
      vertex 60 0 0
      vertex 60 0.5 0.799999
      vertex 60 0 20
    endloop
  endfacet
  facet normal -0 0 1
    outer loop
      vertex 0 20 0.799999
      vertex 60 0.5 0.799999
      vertex 60 20 0.799999
    endloop
  endfacet
  facet normal 0 0 1
    outer loop
      vertex 60 0.5 0.799999
      vertex 0 20 0.799999
      vertex 0 0.5 0.799999
    endloop
  endfacet
  facet normal 0 0 -1
    outer loop
      vertex 0 0 0
      vertex 60 20 0
      vertex 60 0 0
    endloop
  endfacet
  facet normal -0 0 -1
    outer loop
      vertex 60 20 0
      vertex 0 0 0
      vertex 0 20 0
    endloop
  endfacet
  facet normal -1 0 0
    outer loop
      vertex 0 20 0
      vertex 0 0.5 0.799999
      vertex 0 20 0.799999
    endloop
  endfacet
  facet normal -1 0 0
    outer loop
      vertex 0 0 0
      vertex 0 0.5 0.799999
      vertex 0 20 0
    endloop
  endfacet
  facet normal -1 0 0
    outer loop
      vertex 0 0 20
      vertex 0 0.5 0.799999
      vertex 0 0 0
    endloop
  endfacet
  facet normal -1 0 0
    outer loop
      vertex 0 0.5 0.799999
      vertex 0 0 20
      vertex 0 0.5 20
    endloop
  endfacet
  facet normal 0 1 -0
    outer loop
      vertex 60 20 0
      vertex 0 20 0.799999
      vertex 60 20 0.799999
    endloop
  endfacet
  facet normal 0 1 0
    outer loop
      vertex 0 20 0.799999
      vertex 60 20 0
      vertex 0 20 0
    endloop
  endfacet
  facet normal 0 -1 0
    outer loop
      vertex 0 0 0
      vertex 60 0 20
      vertex 0 0 20
    endloop
  endfacet
  facet normal 0 -1 -0
    outer loop
      vertex 60 0 20
      vertex 0 0 0
      vertex 60 0 0
    endloop
  endfacet
  facet normal -0 0 1
    outer loop
      vertex 0 0.5 20
      vertex 60 0 20
      vertex 60 0.5 20
    endloop
  endfacet
  facet normal 0 0 1
    outer loop
      vertex 60 0 20
      vertex 0 0.5 20
      vertex 0 0 20
    endloop
  endfacet
  facet normal 0 1 -0
    outer loop
      vertex 60 0.5 0.799999
      vertex 0 0.5 20
      vertex 60 0.5 20
    endloop
  endfacet
  facet normal 0 1 0
    outer loop
      vertex 0 0.5 20
      vertex 60 0.5 0.799999
      vertex 0 0.5 0.799999
    endloop
  endfacet
endsolid OpenSCAD_Model
