solid OpenSCAD_Model
  facet normal 1 -0 0
    outer loop
      vertex 5.925 -8.175 10
      vertex 5.925 8.175 0
      vertex 5.925 8.175 10
    endloop
  endfacet
  facet normal 1 0 0
    outer loop
      vertex 5.925 8.175 0
      vertex 5.925 -8.175 10
      vertex 5.925 -8.175 0
    endloop
  endfacet
  facet normal 0 0 1
    outer loop
      vertex 5.925 8.175 10
      vertex 4.925 7.175 10
      vertex 5.925 -8.175 10
    endloop
  endfacet
  facet normal 0 0 1
    outer loop
      vertex 5.925 8.175 10
      vertex -4.925 7.175 10
      vertex 4.925 7.175 10
    endloop
  endfacet
  facet normal 0 0 1
    outer loop
      vertex -4.925 7.175 10
      vertex -5.925 8.175 10
      vertex -4.925 -7.175 10
    endloop
  endfacet
  facet normal -0 0 1
    outer loop
      vertex -5.925 8.175 10
      vertex -4.925 7.175 10
      vertex 5.925 8.175 10
    endloop
  endfacet
  facet normal -0 0 1
    outer loop
      vertex 4.925 -7.175 10
      vertex 5.925 -8.175 10
      vertex 4.925 7.175 10
    endloop
  endfacet
  facet normal -0 0 1
    outer loop
      vertex -4.925 -7.175 10
      vertex 5.925 -8.175 10
      vertex 4.925 -7.175 10
    endloop
  endfacet
  facet normal 0 0 1
    outer loop
      vertex -4.925 -7.175 10
      vertex -5.925 -8.175 10
      vertex 5.925 -8.175 10
    endloop
  endfacet
  facet normal 0 0 1
    outer loop
      vertex -5.925 -8.175 10
      vertex -4.925 -7.175 10
      vertex -5.925 8.175 10
    endloop
  endfacet
  facet normal 0 0 1
    outer loop
      vertex 7.65 10.2 0
      vertex 5.925 8.175 0
      vertex 7.65 -10.2 0
    endloop
  endfacet
  facet normal 0 0 1
    outer loop
      vertex 7.65 10.2 0
      vertex -5.925 8.175 0
      vertex 5.925 8.175 0
    endloop
  endfacet
  facet normal 0 0 1
    outer loop
      vertex -5.925 8.175 0
      vertex -7.65 10.2 0
      vertex -5.925 -8.175 0
    endloop
  endfacet
  facet normal -0 0 1
    outer loop
      vertex -7.65 10.2 0
      vertex -5.925 8.175 0
      vertex 7.65 10.2 0
    endloop
  endfacet
  facet normal -0 0 1
    outer loop
      vertex 5.925 -8.175 0
      vertex 7.65 -10.2 0
      vertex 5.925 8.175 0
    endloop
  endfacet
  facet normal -0 0 1
    outer loop
      vertex -5.925 -8.175 0
      vertex 7.65 -10.2 0
      vertex 5.925 -8.175 0
    endloop
  endfacet
  facet normal 0 0 1
    outer loop
      vertex -5.925 -8.175 0
      vertex -7.65 -10.2 0
      vertex 7.65 -10.2 0
    endloop
  endfacet
  facet normal 0 0 1
    outer loop
      vertex -7.65 -10.2 0
      vertex -5.925 -8.175 0
      vertex -7.65 10.2 0
    endloop
  endfacet
  facet normal -0 0 1
    outer loop
      vertex -4.925 7.175 0
      vertex 4.925 -7.175 0
      vertex 4.925 7.175 0
    endloop
  endfacet
  facet normal 0 0 1
    outer loop
      vertex 4.925 -7.175 0
      vertex -4.925 7.175 0
      vertex -4.925 -7.175 0
    endloop
  endfacet
  facet normal -1 0 0
    outer loop
      vertex -5.925 -8.175 0
      vertex -5.925 8.175 10
      vertex -5.925 8.175 0
    endloop
  endfacet
  facet normal -1 -0 0
    outer loop
      vertex -5.925 8.175 10
      vertex -5.925 -8.175 0
      vertex -5.925 -8.175 10
    endloop
  endfacet
  facet normal 0 1 -0
    outer loop
      vertex 5.925 8.175 0
      vertex -5.925 8.175 10
      vertex 5.925 8.175 10
    endloop
  endfacet
  facet normal 0 1 0
    outer loop
      vertex -5.925 8.175 10
      vertex 5.925 8.175 0
      vertex -5.925 8.175 0
    endloop
  endfacet
  facet normal 0 -1 0
    outer loop
      vertex -5.925 -8.175 0
      vertex 5.925 -8.175 10
      vertex -5.925 -8.175 10
    endloop
  endfacet
  facet normal 0 -1 -0
    outer loop
      vertex 5.925 -8.175 10
      vertex -5.925 -8.175 0
      vertex 5.925 -8.175 0
    endloop
  endfacet
  facet normal -1 0 0
    outer loop
      vertex 4.925 -7.175 0
      vertex 4.925 7.175 10
      vertex 4.925 7.175 0
    endloop
  endfacet
  facet normal -1 -0 0
    outer loop
      vertex 4.925 7.175 10
      vertex 4.925 -7.175 0
      vertex 4.925 -7.175 10
    endloop
  endfacet
  facet normal 1 -0 0
    outer loop
      vertex -4.925 -7.175 10
      vertex -4.925 7.175 0
      vertex -4.925 7.175 10
    endloop
  endfacet
  facet normal 1 0 0
    outer loop
      vertex -4.925 7.175 0
      vertex -4.925 -7.175 10
      vertex -4.925 -7.175 0
    endloop
  endfacet
  facet normal 0 -1 0
    outer loop
      vertex -4.925 7.175 0
      vertex 4.925 7.175 10
      vertex -4.925 7.175 10
    endloop
  endfacet
  facet normal 0 -1 -0
    outer loop
      vertex 4.925 7.175 10
      vertex -4.925 7.175 0
      vertex 4.925 7.175 0
    endloop
  endfacet
  facet normal 0 1 -0
    outer loop
      vertex 4.925 -7.175 0
      vertex -4.925 -7.175 10
      vertex 4.925 -7.175 10
    endloop
  endfacet
  facet normal 0 1 0
    outer loop
      vertex -4.925 -7.175 10
      vertex 4.925 -7.175 0
      vertex -4.925 -7.175 0
    endloop
  endfacet
  facet normal 1 -0 0
    outer loop
      vertex 7.65 -10.2 0
      vertex 7.65 10.2 -1.6
      vertex 7.65 10.2 0
    endloop
  endfacet
  facet normal 1 0 0
    outer loop
      vertex 7.65 10.2 -1.6
      vertex 7.65 -10.2 0
      vertex 7.65 -10.2 -1.6
    endloop
  endfacet
  facet normal 0 0 -1
    outer loop
      vertex -7.65 -10.2 -1.6
      vertex 7.65 10.2 -1.6
      vertex 7.65 -10.2 -1.6
    endloop
  endfacet
  facet normal -0 0 -1
    outer loop
      vertex 7.65 10.2 -1.6
      vertex -7.65 -10.2 -1.6
      vertex -7.65 10.2 -1.6
    endloop
  endfacet
  facet normal -1 0 0
    outer loop
      vertex -7.65 -10.2 -1.6
      vertex -7.65 10.2 0
      vertex -7.65 10.2 -1.6
    endloop
  endfacet
  facet normal -1 -0 0
    outer loop
      vertex -7.65 10.2 0
      vertex -7.65 -10.2 -1.6
      vertex -7.65 -10.2 0
    endloop
  endfacet
  facet normal 0 1 -0
    outer loop
      vertex 7.65 10.2 -1.6
      vertex -7.65 10.2 0
      vertex 7.65 10.2 0
    endloop
  endfacet
  facet normal 0 1 0
    outer loop
      vertex -7.65 10.2 0
      vertex 7.65 10.2 -1.6
      vertex -7.65 10.2 -1.6
    endloop
  endfacet
  facet normal 0 -1 0
    outer loop
      vertex -7.65 -10.2 -1.6
      vertex 7.65 -10.2 0
      vertex -7.65 -10.2 0
    endloop
  endfacet
  facet normal 0 -1 -0
    outer loop
      vertex 7.65 -10.2 0
      vertex -7.65 -10.2 -1.6
      vertex 7.65 -10.2 -1.6
    endloop
  endfacet
endsolid OpenSCAD_Model
