solid OpenSCAD_Model
  facet normal 1 -0 0
    outer loop
      vertex 5.85 -8.1 10
      vertex 5.85 8.1 0
      vertex 5.85 8.1 10
    endloop
  endfacet
  facet normal 1 0 0
    outer loop
      vertex 5.85 8.1 0
      vertex 5.85 -8.1 10
      vertex 5.85 -8.1 0
    endloop
  endfacet
  facet normal 0 0 1
    outer loop
      vertex 5.85 8.1 10
      vertex 4.85 7.1 10
      vertex 5.85 -8.1 10
    endloop
  endfacet
  facet normal 0 0 1
    outer loop
      vertex 5.85 8.1 10
      vertex -4.85 7.1 10
      vertex 4.85 7.1 10
    endloop
  endfacet
  facet normal 0 0 1
    outer loop
      vertex -4.85 7.1 10
      vertex -5.85 8.1 10
      vertex -4.85 -7.1 10
    endloop
  endfacet
  facet normal -0 0 1
    outer loop
      vertex -5.85 8.1 10
      vertex -4.85 7.1 10
      vertex 5.85 8.1 10
    endloop
  endfacet
  facet normal -0 0 1
    outer loop
      vertex 4.85 -7.1 10
      vertex 5.85 -8.1 10
      vertex 4.85 7.1 10
    endloop
  endfacet
  facet normal -0 0 1
    outer loop
      vertex -4.85 -7.1 10
      vertex 5.85 -8.1 10
      vertex 4.85 -7.1 10
    endloop
  endfacet
  facet normal 0 0 1
    outer loop
      vertex -4.85 -7.1 10
      vertex -5.85 -8.1 10
      vertex 5.85 -8.1 10
    endloop
  endfacet
  facet normal 0 0 1
    outer loop
      vertex -5.85 -8.1 10
      vertex -4.85 -7.1 10
      vertex -5.85 8.1 10
    endloop
  endfacet
  facet normal 0 0 1
    outer loop
      vertex 7.65 10.2 0
      vertex 5.85 8.1 0
      vertex 7.65 -10.2 0
    endloop
  endfacet
  facet normal 0 0 1
    outer loop
      vertex 7.65 10.2 0
      vertex -5.85 8.1 0
      vertex 5.85 8.1 0
    endloop
  endfacet
  facet normal 0 0 1
    outer loop
      vertex -5.85 8.1 0
      vertex -7.65 10.2 0
      vertex -5.85 -8.1 0
    endloop
  endfacet
  facet normal -0 0 1
    outer loop
      vertex -7.65 10.2 0
      vertex -5.85 8.1 0
      vertex 7.65 10.2 0
    endloop
  endfacet
  facet normal -0 0 1
    outer loop
      vertex 5.85 -8.1 0
      vertex 7.65 -10.2 0
      vertex 5.85 8.1 0
    endloop
  endfacet
  facet normal -0 0 1
    outer loop
      vertex -5.85 -8.1 0
      vertex 7.65 -10.2 0
      vertex 5.85 -8.1 0
    endloop
  endfacet
  facet normal 0 0 1
    outer loop
      vertex -5.85 -8.1 0
      vertex -7.65 -10.2 0
      vertex 7.65 -10.2 0
    endloop
  endfacet
  facet normal 0 0 1
    outer loop
      vertex -7.65 -10.2 0
      vertex -5.85 -8.1 0
      vertex -7.65 10.2 0
    endloop
  endfacet
  facet normal -0 0 1
    outer loop
      vertex -4.85 7.1 0
      vertex 4.85 -7.1 0
      vertex 4.85 7.1 0
    endloop
  endfacet
  facet normal 0 0 1
    outer loop
      vertex 4.85 -7.1 0
      vertex -4.85 7.1 0
      vertex -4.85 -7.1 0
    endloop
  endfacet
  facet normal -1 0 0
    outer loop
      vertex -5.85 -8.1 0
      vertex -5.85 8.1 10
      vertex -5.85 8.1 0
    endloop
  endfacet
  facet normal -1 -0 0
    outer loop
      vertex -5.85 8.1 10
      vertex -5.85 -8.1 0
      vertex -5.85 -8.1 10
    endloop
  endfacet
  facet normal 0 1 -0
    outer loop
      vertex 5.85 8.1 0
      vertex -5.85 8.1 10
      vertex 5.85 8.1 10
    endloop
  endfacet
  facet normal 0 1 0
    outer loop
      vertex -5.85 8.1 10
      vertex 5.85 8.1 0
      vertex -5.85 8.1 0
    endloop
  endfacet
  facet normal 0 -1 0
    outer loop
      vertex -5.85 -8.1 0
      vertex 5.85 -8.1 10
      vertex -5.85 -8.1 10
    endloop
  endfacet
  facet normal 0 -1 -0
    outer loop
      vertex 5.85 -8.1 10
      vertex -5.85 -8.1 0
      vertex 5.85 -8.1 0
    endloop
  endfacet
  facet normal -1 0 0
    outer loop
      vertex 4.85 -7.1 0
      vertex 4.85 7.1 10
      vertex 4.85 7.1 0
    endloop
  endfacet
  facet normal -1 -0 0
    outer loop
      vertex 4.85 7.1 10
      vertex 4.85 -7.1 0
      vertex 4.85 -7.1 10
    endloop
  endfacet
  facet normal 1 -0 0
    outer loop
      vertex -4.85 -7.1 10
      vertex -4.85 7.1 0
      vertex -4.85 7.1 10
    endloop
  endfacet
  facet normal 1 0 0
    outer loop
      vertex -4.85 7.1 0
      vertex -4.85 -7.1 10
      vertex -4.85 -7.1 0
    endloop
  endfacet
  facet normal 0 -1 0
    outer loop
      vertex -4.85 7.1 0
      vertex 4.85 7.1 10
      vertex -4.85 7.1 10
    endloop
  endfacet
  facet normal 0 -1 -0
    outer loop
      vertex 4.85 7.1 10
      vertex -4.85 7.1 0
      vertex 4.85 7.1 0
    endloop
  endfacet
  facet normal 0 1 -0
    outer loop
      vertex 4.85 -7.1 0
      vertex -4.85 -7.1 10
      vertex 4.85 -7.1 10
    endloop
  endfacet
  facet normal 0 1 0
    outer loop
      vertex -4.85 -7.1 10
      vertex 4.85 -7.1 0
      vertex -4.85 -7.1 0
    endloop
  endfacet
  facet normal 1 -0 0
    outer loop
      vertex 7.65 -10.2 0
      vertex 7.65 10.2 -1.6
      vertex 7.65 10.2 0
    endloop
  endfacet
  facet normal 1 0 0
    outer loop
      vertex 7.65 10.2 -1.6
      vertex 7.65 -10.2 0
      vertex 7.65 -10.2 -1.6
    endloop
  endfacet
  facet normal 0 0 -1
    outer loop
      vertex -7.65 -10.2 -1.6
      vertex 7.65 10.2 -1.6
      vertex 7.65 -10.2 -1.6
    endloop
  endfacet
  facet normal -0 0 -1
    outer loop
      vertex 7.65 10.2 -1.6
      vertex -7.65 -10.2 -1.6
      vertex -7.65 10.2 -1.6
    endloop
  endfacet
  facet normal -1 0 0
    outer loop
      vertex -7.65 -10.2 -1.6
      vertex -7.65 10.2 0
      vertex -7.65 10.2 -1.6
    endloop
  endfacet
  facet normal -1 -0 0
    outer loop
      vertex -7.65 10.2 0
      vertex -7.65 -10.2 -1.6
      vertex -7.65 -10.2 0
    endloop
  endfacet
  facet normal 0 1 -0
    outer loop
      vertex 7.65 10.2 -1.6
      vertex -7.65 10.2 0
      vertex 7.65 10.2 0
    endloop
  endfacet
  facet normal 0 1 0
    outer loop
      vertex -7.65 10.2 0
      vertex 7.65 10.2 -1.6
      vertex -7.65 10.2 -1.6
    endloop
  endfacet
  facet normal 0 -1 0
    outer loop
      vertex -7.65 -10.2 -1.6
      vertex 7.65 -10.2 0
      vertex -7.65 -10.2 0
    endloop
  endfacet
  facet normal 0 -1 -0
    outer loop
      vertex 7.65 -10.2 0
      vertex -7.65 -10.2 -1.6
      vertex 7.65 -10.2 -1.6
    endloop
  endfacet
endsolid OpenSCAD_Model
