solid OpenSCAD_Model
  facet normal 1 -0 0
    outer loop
      vertex 6 -8.25 4
      vertex 6 8.25 0
      vertex 6 8.25 4
    endloop
  endfacet
  facet normal 1 0 0
    outer loop
      vertex 6 8.25 0
      vertex 6 -8.25 4
      vertex 6 -8.25 0
    endloop
  endfacet
  facet normal 0 0 1
    outer loop
      vertex 6 8.25 4
      vertex 5 7.25 4
      vertex 6 -8.25 4
    endloop
  endfacet
  facet normal 0 0 1
    outer loop
      vertex 6 8.25 4
      vertex -5 7.25 4
      vertex 5 7.25 4
    endloop
  endfacet
  facet normal 0 0 1
    outer loop
      vertex -5 7.25 4
      vertex -6 8.25 4
      vertex -5 -7.25 4
    endloop
  endfacet
  facet normal -0 0 1
    outer loop
      vertex -6 8.25 4
      vertex -5 7.25 4
      vertex 6 8.25 4
    endloop
  endfacet
  facet normal -0 0 1
    outer loop
      vertex 5 -7.25 4
      vertex 6 -8.25 4
      vertex 5 7.25 4
    endloop
  endfacet
  facet normal -0 0 1
    outer loop
      vertex -5 -7.25 4
      vertex 6 -8.25 4
      vertex 5 -7.25 4
    endloop
  endfacet
  facet normal 0 0 1
    outer loop
      vertex -5 -7.25 4
      vertex -6 -8.25 4
      vertex 6 -8.25 4
    endloop
  endfacet
  facet normal 0 0 1
    outer loop
      vertex -6 -8.25 4
      vertex -5 -7.25 4
      vertex -6 8.25 4
    endloop
  endfacet
  facet normal 0 0 1
    outer loop
      vertex 7.65 10.2 0
      vertex 6 8.25 0
      vertex 7.65 -10.2 0
    endloop
  endfacet
  facet normal 0 0 1
    outer loop
      vertex 7.65 10.2 0
      vertex -6 8.25 0
      vertex 6 8.25 0
    endloop
  endfacet
  facet normal 0 0 1
    outer loop
      vertex -6 8.25 0
      vertex -7.65 10.2 0
      vertex -6 -8.25 0
    endloop
  endfacet
  facet normal -0 0 1
    outer loop
      vertex -7.65 10.2 0
      vertex -6 8.25 0
      vertex 7.65 10.2 0
    endloop
  endfacet
  facet normal -0 0 1
    outer loop
      vertex 6 -8.25 0
      vertex 7.65 -10.2 0
      vertex 6 8.25 0
    endloop
  endfacet
  facet normal -0 0 1
    outer loop
      vertex -6 -8.25 0
      vertex 7.65 -10.2 0
      vertex 6 -8.25 0
    endloop
  endfacet
  facet normal 0 0 1
    outer loop
      vertex -6 -8.25 0
      vertex -7.65 -10.2 0
      vertex 7.65 -10.2 0
    endloop
  endfacet
  facet normal 0 0 1
    outer loop
      vertex -7.65 -10.2 0
      vertex -6 -8.25 0
      vertex -7.65 10.2 0
    endloop
  endfacet
  facet normal -0 0 1
    outer loop
      vertex -5 7.25 0
      vertex 5 -7.25 0
      vertex 5 7.25 0
    endloop
  endfacet
  facet normal 0 0 1
    outer loop
      vertex 5 -7.25 0
      vertex -5 7.25 0
      vertex -5 -7.25 0
    endloop
  endfacet
  facet normal -1 0 0
    outer loop
      vertex -6 -8.25 0
      vertex -6 8.25 4
      vertex -6 8.25 0
    endloop
  endfacet
  facet normal -1 -0 0
    outer loop
      vertex -6 8.25 4
      vertex -6 -8.25 0
      vertex -6 -8.25 4
    endloop
  endfacet
  facet normal 0 1 -0
    outer loop
      vertex 6 8.25 0
      vertex -6 8.25 4
      vertex 6 8.25 4
    endloop
  endfacet
  facet normal 0 1 0
    outer loop
      vertex -6 8.25 4
      vertex 6 8.25 0
      vertex -6 8.25 0
    endloop
  endfacet
  facet normal 0 -1 0
    outer loop
      vertex -6 -8.25 0
      vertex 6 -8.25 4
      vertex -6 -8.25 4
    endloop
  endfacet
  facet normal 0 -1 -0
    outer loop
      vertex 6 -8.25 4
      vertex -6 -8.25 0
      vertex 6 -8.25 0
    endloop
  endfacet
  facet normal -1 0 0
    outer loop
      vertex 5 -7.25 0
      vertex 5 7.25 4
      vertex 5 7.25 0
    endloop
  endfacet
  facet normal -1 -0 0
    outer loop
      vertex 5 7.25 4
      vertex 5 -7.25 0
      vertex 5 -7.25 4
    endloop
  endfacet
  facet normal 1 -0 0
    outer loop
      vertex -5 -7.25 4
      vertex -5 7.25 0
      vertex -5 7.25 4
    endloop
  endfacet
  facet normal 1 0 0
    outer loop
      vertex -5 7.25 0
      vertex -5 -7.25 4
      vertex -5 -7.25 0
    endloop
  endfacet
  facet normal 0 -1 0
    outer loop
      vertex -5 7.25 0
      vertex 5 7.25 4
      vertex -5 7.25 4
    endloop
  endfacet
  facet normal 0 -1 -0
    outer loop
      vertex 5 7.25 4
      vertex -5 7.25 0
      vertex 5 7.25 0
    endloop
  endfacet
  facet normal 0 1 -0
    outer loop
      vertex 5 -7.25 0
      vertex -5 -7.25 4
      vertex 5 -7.25 4
    endloop
  endfacet
  facet normal 0 1 0
    outer loop
      vertex -5 -7.25 4
      vertex 5 -7.25 0
      vertex -5 -7.25 0
    endloop
  endfacet
  facet normal 1 -0 0
    outer loop
      vertex 7.65 -10.2 0
      vertex 7.65 10.2 -1.2
      vertex 7.65 10.2 0
    endloop
  endfacet
  facet normal 1 0 0
    outer loop
      vertex 7.65 10.2 -1.2
      vertex 7.65 -10.2 0
      vertex 7.65 -10.2 -1.2
    endloop
  endfacet
  facet normal 0 0 -1
    outer loop
      vertex -7.65 -10.2 -1.2
      vertex 7.65 10.2 -1.2
      vertex 7.65 -10.2 -1.2
    endloop
  endfacet
  facet normal -0 0 -1
    outer loop
      vertex 7.65 10.2 -1.2
      vertex -7.65 -10.2 -1.2
      vertex -7.65 10.2 -1.2
    endloop
  endfacet
  facet normal -1 0 0
    outer loop
      vertex -7.65 -10.2 -1.2
      vertex -7.65 10.2 0
      vertex -7.65 10.2 -1.2
    endloop
  endfacet
  facet normal -1 -0 0
    outer loop
      vertex -7.65 10.2 0
      vertex -7.65 -10.2 -1.2
      vertex -7.65 -10.2 0
    endloop
  endfacet
  facet normal 0 1 -0
    outer loop
      vertex 7.65 10.2 -1.2
      vertex -7.65 10.2 0
      vertex 7.65 10.2 0
    endloop
  endfacet
  facet normal 0 1 0
    outer loop
      vertex -7.65 10.2 0
      vertex 7.65 10.2 -1.2
      vertex -7.65 10.2 -1.2
    endloop
  endfacet
  facet normal 0 -1 0
    outer loop
      vertex -7.65 -10.2 -1.2
      vertex 7.65 -10.2 0
      vertex -7.65 -10.2 0
    endloop
  endfacet
  facet normal 0 -1 -0
    outer loop
      vertex 7.65 -10.2 0
      vertex -7.65 -10.2 -1.2
      vertex 7.65 -10.2 -1.2
    endloop
  endfacet
endsolid OpenSCAD_Model
