solid OpenSCAD_Model
  facet normal -0.999657 0 -0.0261846
    outer loop
      vertex 9.99848 -4 -8.87548
      vertex 9.99391 4 -8.70101
      vertex 9.99848 4 -8.87548
    endloop
  endfacet
  facet normal -0.999657 -0 -0.0261846
    outer loop
      vertex 9.99391 4 -8.70101
      vertex 9.99848 -4 -8.87548
      vertex 9.99391 -4 -8.70101
    endloop
  endfacet
  facet normal -0.998136 0 0.0610227
    outer loop
      vertex 9.97564 -4 -9.74756
      vertex 9.98629 4 -9.57336
      vertex 9.97564 4 -9.74756
    endloop
  endfacet
  facet normal -0.998136 0 0.0610227
    outer loop
      vertex 9.98629 4 -9.57336
      vertex 9.97564 -4 -9.74756
      vertex 9.98629 -4 -9.57336
    endloop
  endfacet
  facet normal -0.989012 0 0.147836
    outer loop
      vertex 9.87688 -4 -10.6143
      vertex 9.90268 4 -10.4417
      vertex 9.87688 4 -10.6143
    endloop
  endfacet
  facet normal -0.989012 0 0.147836
    outer loop
      vertex 9.90268 4 -10.4417
      vertex 9.87688 -4 -10.6143
      vertex 9.90268 -4 -10.4417
    endloop
  endfacet
  facet normal -0.675608 0 -0.737261
    outer loop
      vertex 6.69131 -4 -1.61855
      vertex 6.81998 4 -1.73646
      vertex 6.81998 -4 -1.73646
    endloop
  endfacet
  facet normal -0.675608 0 -0.737261
    outer loop
      vertex 6.81998 4 -1.73646
      vertex 6.69131 -4 -1.61855
      vertex 6.69131 4 -1.61855
    endloop
  endfacet
  facet normal -0.507544 0 -0.861626
    outer loop
      vertex 5 -4 -0.389746
      vertex 5.15038 4 -0.478328
      vertex 5.15038 -4 -0.478328
    endloop
  endfacet
  facet normal -0.507544 0 -0.861626
    outer loop
      vertex 5.15038 4 -0.478328
      vertex 5 -4 -0.389746
      vertex 5 4 -0.389746
    endloop
  endfacet
  facet normal -0.782604 0 -0.62252
    outer loop
      vertex 7.88011 -4 -2.89339
      vertex 7.77146 4 -2.7568
      vertex 7.88011 4 -2.89339
    endloop
  endfacet
  facet normal -0.782604 -0 -0.62252
    outer loop
      vertex 7.77146 4 -2.7568
      vertex 7.88011 -4 -2.89339
      vertex 7.77146 -4 -2.7568
    endloop
  endfacet
  facet normal -0.843409 0 -0.537272
    outer loop
      vertex 8.48048 -4 -3.75081
      vertex 8.38671 4 -3.60361
      vertex 8.48048 4 -3.75081
    endloop
  endfacet
  facet normal -0.843409 -0 -0.537272
    outer loop
      vertex 8.38671 4 -3.60361
      vertex 8.48048 -4 -3.75081
      vertex 8.38671 -4 -3.60361
    endloop
  endfacet
  facet normal 0.477156 0 -0.878818
    outer loop
      vertex -4.8481 -4 -0.303803
      vertex -4.69472 4 -0.220525
      vertex -4.69472 -4 -0.220525
    endloop
  endfacet
  facet normal 0.477156 0 -0.878818
    outer loop
      vertex -4.69472 4 -0.220525
      vertex -4.8481 -4 -0.303803
      vertex -4.8481 4 -0.303803
    endloop
  endfacet
  facet normal -0.968146 0 -0.250387
    outer loop
      vertex 9.70296 -4 -6.63078
      vertex 9.65926 4 -6.46181
      vertex 9.70296 4 -6.63078
    endloop
  endfacet
  facet normal -0.968146 -0 -0.250387
    outer loop
      vertex 9.65926 4 -6.46181
      vertex 9.70296 -4 -6.63078
      vertex 9.65926 -4 -6.46181
    endloop
  endfacet
  facet normal -0.46173 0 -0.887021
    outer loop
      vertex 4.5399 -4 -0.139935
      vertex 4.69472 4 -0.220525
      vertex 4.69472 -4 -0.220525
    endloop
  endfacet
  facet normal -0.46173 0 -0.887021
    outer loop
      vertex 4.69472 4 -0.220525
      vertex 4.5399 -4 -0.139935
      vertex 4.5399 4 -0.139935
    endloop
  endfacet
  facet normal -0.894919 0 -0.446228
    outer loop
      vertex 8.98794 -4 -4.66629
      vertex 8.91006 4 -4.5101
      vertex 8.98794 4 -4.66629
    endloop
  endfacet
  facet normal -0.894919 -0 -0.446228
    outer loop
      vertex 8.91006 4 -4.5101
      vertex 8.98794 -4 -4.66629
      vertex 8.91006 -4 -4.5101
    endloop
  endfacet
  facet normal -0.953729 0 0.300668
    outer loop
      vertex 9.51056 -4 -12.1402
      vertex 9.56305 4 -11.9737
      vertex 9.51056 4 -12.1402
    endloop
  endfacet
  facet normal -0.953729 0 0.300668
    outer loop
      vertex 9.56305 4 -11.9737
      vertex 9.51056 -4 -12.1402
      vertex 9.56305 -4 -11.9737
    endloop
  endfacet
  facet normal -0.986301 0 0.164956
    outer loop
      vertex 9.84808 -4 -10.7865
      vertex 9.87688 4 -10.6143
      vertex 9.84808 4 -10.7865
    endloop
  endfacet
  facet normal -0.986301 0 0.164956
    outer loop
      vertex 9.87688 4 -10.6143
      vertex 9.84808 -4 -10.7865
      vertex 9.87688 -4 -10.6143
    endloop
  endfacet
  facet normal -0.998136 0 -0.0610227
    outer loop
      vertex 9.98629 -4 -8.52664
      vertex 9.97564 4 -8.35244
      vertex 9.98629 4 -8.52664
    endloop
  endfacet
  facet normal -0.998136 -0 -0.0610227
    outer loop
      vertex 9.97564 4 -8.35244
      vertex 9.98629 -4 -8.52664
      vertex 9.97564 -4 -8.35244
    endloop
  endfacet
  facet normal -0.936672 0 0.350207
    outer loop
      vertex 9.3358 -4 -12.6337
      vertex 9.39693 4 -12.4702
      vertex 9.3358 4 -12.6337
    endloop
  endfacet
  facet normal -0.936672 0 0.350207
    outer loop
      vertex 9.39693 4 -12.4702
      vertex 9.3358 -4 -12.6337
      vertex 9.39693 -4 -12.4702
    endloop
  endfacet
  facet normal -0.90997 0 -0.414675
    outer loop
      vertex 9.13545 -4 -4.98263
      vertex 9.06308 4 -4.82382
      vertex 9.13545 4 -4.98263
    endloop
  endfacet
  facet normal -0.90997 -0 -0.414675
    outer loop
      vertex 9.06308 4 -4.82382
      vertex 9.13545 -4 -4.98263
      vertex 9.06308 -4 -4.82382
    endloop
  endfacet
  facet normal -0.999962 0 -0.00870927
    outer loop
      vertex 10 -4 -9.05
      vertex 9.99848 4 -8.87548
      vertex 10 4 -9.05
    endloop
  endfacet
  facet normal -0.999962 -0 -0.00870927
    outer loop
      vertex 9.99848 4 -8.87548
      vertex 10 -4 -9.05
      vertex 9.99848 -4 -8.87548
    endloop
  endfacet
  facet normal -0.972372 0 0.233438
    outer loop
      vertex 9.70296 -4 -11.4692
      vertex 9.7437 4 -11.2995
      vertex 9.70296 4 -11.4692
    endloop
  endfacet
  facet normal -0.972372 0 0.233438
    outer loop
      vertex 9.7437 4 -11.2995
      vertex 9.70296 -4 -11.4692
      vertex 9.7437 -4 -11.2995
    endloop
  endfacet
  facet normal -0.55193 0 -0.833891
    outer loop
      vertex 5.44639 -4 -0.663295
      vertex 5.59193 4 -0.759624
      vertex 5.59193 -4 -0.759624
    endloop
  endfacet
  facet normal -0.55193 0 -0.833891
    outer loop
      vertex 5.59193 4 -0.759624
      vertex 5.44639 -4 -0.663295
      vertex 5.44639 4 -0.663295
    endloop
  endfacet
  facet normal -0.870333 0 0.492463
    outer loop
      vertex 8.66025 -4 -14.05
      vertex 8.7462 4 -13.8981
      vertex 8.66025 4 -14.05
    endloop
  endfacet
  facet normal -0.870333 0 0.492463
    outer loop
      vertex 8.7462 4 -13.8981
      vertex 8.66025 -4 -14.05
      vertex 8.7462 -4 -13.8981
    endloop
  endfacet
  facet normal -0.833888 0 -0.551934
    outer loop
      vertex 8.38671 -4 -3.60361
      vertex 8.29038 4 -3.45807
      vertex 8.38671 4 -3.60361
    endloop
  endfacet
  facet normal -0.833888 -0 -0.551934
    outer loop
      vertex 8.29038 4 -3.45807
      vertex 8.38671 -4 -3.60361
      vertex 8.29038 -4 -3.45807
    endloop
  endfacet
  facet normal -0.989013 0 -0.147828
    outer loop
      vertex 9.90268 -4 -7.65827
      vertex 9.87688 4 -7.48566
      vertex 9.90268 4 -7.65827
    endloop
  endfacet
  facet normal -0.989013 -0 -0.147828
    outer loop
      vertex 9.87688 4 -7.48566
      vertex 9.90268 -4 -7.65827
      vertex 9.87688 -4 -7.48566
    endloop
  endfacet
  facet normal -0.725371 0 -0.688358
    outer loop
      vertex 7.31354 -4 -2.23002
      vertex 7.1934 4 -2.10342
      vertex 7.31354 4 -2.23002
    endloop
  endfacet
  facet normal -0.725371 -0 -0.688358
    outer loop
      vertex 7.1934 4 -2.10342
      vertex 7.31354 -4 -2.23002
      vertex 7.1934 -4 -2.10342
    endloop
  endfacet
  facet normal -0.86166 0 0.507486
    outer loop
      vertex 8.57167 -4 -14.2004
      vertex 8.66025 4 -14.05
      vertex 8.57167 4 -14.2004
    endloop
  endfacet
  facet normal -0.86166 0 0.507486
    outer loop
      vertex 8.66025 4 -14.05
      vertex 8.57167 -4 -14.2004
      vertex 8.66025 -4 -14.05
    endloop
  endfacet
  facet normal -0.917052 0 -0.398768
    outer loop
      vertex 9.20505 -4 -5.14269
      vertex 9.13545 4 -4.98263
      vertex 9.20505 4 -5.14269
    endloop
  endfacet
  facet normal -0.917052 -0 -0.398768
    outer loop
      vertex 9.13545 4 -4.98263
      vertex 9.20505 -4 -5.14269
      vertex 9.13545 -4 -4.98263
    endloop
  endfacet
  facet normal -0.942646 0 0.333794
    outer loop
      vertex 9.39693 -4 -12.4702
      vertex 9.45518 4 -12.3057
      vertex 9.39693 4 -12.4702
    endloop
  endfacet
  facet normal -0.942646 0 0.333794
    outer loop
      vertex 9.45518 4 -12.3057
      vertex 9.39693 -4 -12.4702
      vertex 9.45518 -4 -12.3057
    endloop
  endfacet
  facet normal -0.968156 0 0.250346
    outer loop
      vertex 9.65926 -4 -11.6382
      vertex 9.70296 4 -11.4692
      vertex 9.65926 4 -11.6382
    endloop
  endfacet
  facet normal -0.968156 0 0.250346
    outer loop
      vertex 9.70296 4 -11.4692
      vertex 9.65926 -4 -11.6382
      vertex 9.70296 -4 -11.4692
    endloop
  endfacet
  facet normal -0.983249 0 0.182268
    outer loop
      vertex 9.81627 -4 -10.9581
      vertex 9.84808 4 -10.7865
      vertex 9.81627 4 -10.9581
    endloop
  endfacet
  facet normal -0.983249 0 0.182268
    outer loop
      vertex 9.84808 4 -10.7865
      vertex 9.81627 -4 -10.9581
      vertex 9.84808 -4 -10.7865
    endloop
  endfacet
  facet normal -0.76042 0 -0.649431
    outer loop
      vertex 7.66044 -4 -2.62212
      vertex 7.5471 4 -2.48941
      vertex 7.66044 4 -2.62212
    endloop
  endfacet
  facet normal -0.76042 -0 -0.649431
    outer loop
      vertex 7.5471 4 -2.48941
      vertex 7.66044 -4 -2.62212
      vertex 7.5471 -4 -2.48941
    endloop
  endfacet
  facet normal -0.996919 0 -0.0784358
    outer loop
      vertex 9.97564 -4 -8.35244
      vertex 9.96195 4 -8.17844
      vertex 9.97564 4 -8.35244
    endloop
  endfacet
  facet normal -0.996919 -0 -0.0784358
    outer loop
      vertex 9.96195 4 -8.17844
      vertex 9.97564 -4 -8.35244
      vertex 9.96195 -4 -8.17844
    endloop
  endfacet
  facet normal -0.999047 0 -0.0436585
    outer loop
      vertex 9.99391 -4 -8.70101
      vertex 9.98629 4 -8.52664
      vertex 9.99391 4 -8.70101
    endloop
  endfacet
  facet normal -0.999047 -0 -0.0436585
    outer loop
      vertex 9.98629 4 -8.52664
      vertex 9.99391 -4 -8.70101
      vertex 9.98629 -4 -8.52664
    endloop
  endfacet
  facet normal -0.861631 0 -0.507536
    outer loop
      vertex 8.66025 -4 -4.05
      vertex 8.57167 4 -3.89962
      vertex 8.66025 4 -4.05
    endloop
  endfacet
  facet normal -0.861631 -0 -0.507536
    outer loop
      vertex 8.57167 4 -3.89962
      vertex 8.66025 -4 -4.05
      vertex 8.57167 -4 -3.89962
    endloop
  endfacet
  facet normal -0.878814 0 -0.477165
    outer loop
      vertex 8.82948 -4 -4.35528
      vertex 8.7462 4 -4.2019
      vertex 8.82948 4 -4.35528
    endloop
  endfacet
  facet normal -0.878814 -0 -0.477165
    outer loop
      vertex 8.7462 4 -4.2019
      vertex 8.82948 -4 -4.35528
      vertex 8.7462 -4 -4.2019
    endloop
  endfacet
  facet normal -0.979932 0 -0.199332
    outer loop
      vertex 9.81627 -4 -7.14191
      vertex 9.78148 4 -6.97088
      vertex 9.81627 4 -7.14191
    endloop
  endfacet
  facet normal -0.979932 -0 -0.199332
    outer loop
      vertex 9.78148 4 -6.97088
      vertex 9.81627 -4 -7.14191
      vertex 9.78148 -4 -6.97088
    endloop
  endfacet
  facet normal -0.930439 0 0.366446
    outer loop
      vertex 9.27184 -4 -12.7961
      vertex 9.3358 4 -12.6337
      vertex 9.27184 4 -12.7961
    endloop
  endfacet
  facet normal -0.930439 0 0.366446
    outer loop
      vertex 9.3358 4 -12.6337
      vertex 9.27184 -4 -12.7961
      vertex 9.3358 -4 -12.6337
    endloop
  endfacet
  facet normal -0.976289 0 -0.216469
    outer loop
      vertex 9.78148 -4 -6.97088
      vertex 9.7437 4 -6.80049
      vertex 9.78148 4 -6.97088
    endloop
  endfacet
  facet normal -0.976289 -0 -0.216469
    outer loop
      vertex 9.7437 4 -6.80049
      vertex 9.78148 -4 -6.97088
      vertex 9.7437 -4 -6.80049
    endloop
  endfacet
  facet normal -0.958799 0 0.284086
    outer loop
      vertex 9.56305 -4 -11.9737
      vertex 9.61262 4 -11.8064
      vertex 9.56305 4 -11.9737
    endloop
  endfacet
  facet normal -0.958799 0 0.284086
    outer loop
      vertex 9.61262 4 -11.8064
      vertex 9.56305 -4 -11.9737
      vertex 9.61262 -4 -11.8064
    endloop
  endfacet
  facet normal -0.936658 0 -0.350244
    outer loop
      vertex 9.39693 -4 -5.6298
      vertex 9.3358 4 -5.46632
      vertex 9.39693 4 -5.6298
    endloop
  endfacet
  facet normal -0.936658 -0 -0.350244
    outer loop
      vertex 9.3358 4 -5.46632
      vertex 9.39693 -4 -5.6298
      vertex 9.3358 -4 -5.46632
    endloop
  endfacet
  facet normal -0.62252 0 -0.782604
    outer loop
      vertex 6.15661 -4 -1.16989
      vertex 6.2932 4 -1.27854
      vertex 6.2932 -4 -1.27854
    endloop
  endfacet
  facet normal -0.62252 0 -0.782604
    outer loop
      vertex 6.2932 4 -1.27854
      vertex 6.15661 -4 -1.16989
      vertex 6.15661 4 -1.16989
    endloop
  endfacet
  facet normal -0.948322 0 -0.31731
    outer loop
      vertex 9.51056 -4 -5.95983
      vertex 9.45518 4 -5.79432
      vertex 9.51056 4 -5.95983
    endloop
  endfacet
  facet normal -0.948322 -0 -0.31731
    outer loop
      vertex 9.45518 4 -5.79432
      vertex 9.51056 -4 -5.95983
      vertex 9.45518 -4 -5.79432
    endloop
  endfacet
  facet normal -0.636073 0 -0.771629
    outer loop
      vertex 6.2932 -4 -1.27854
      vertex 6.42788 4 -1.38956
      vertex 6.42788 -4 -1.38956
    endloop
  endfacet
  facet normal -0.636073 0 -0.771629
    outer loop
      vertex 6.42788 4 -1.38956
      vertex 6.2932 -4 -1.27854
      vertex 6.2932 4 -1.27854
    endloop
  endfacet
  facet normal 0.492433 0 -0.870351
    outer loop
      vertex -5 -4 -0.389746
      vertex -4.8481 4 -0.303803
      vertex -4.8481 -4 -0.303803
    endloop
  endfacet
  facet normal 0.492433 0 -0.870351
    outer loop
      vertex -4.8481 4 -0.303803
      vertex -5 -4 -0.389746
      vertex -5 4 -0.389746
    endloop
  endfacet
  facet normal 0.430512 0 -0.902585
    outer loop
      vertex -4.38371 -4 -0.0620602
      vertex -4.2536 4 -7.62939e-07
      vertex -4.2536 -4 -7.62939e-07
    endloop
  endfacet
  facet normal 0.430512 0 -0.902585
    outer loop
      vertex -4.2536 4 -7.62939e-07
      vertex -4.38371 -4 -0.0620602
      vertex -4.38371 4 -0.0620602
    endloop
  endfacet
  facet normal -0.88702 0 0.461732
    outer loop
      vertex 8.82948 -4 -13.7447
      vertex 8.91006 4 -13.5899
      vertex 8.82948 4 -13.7447
    endloop
  endfacet
  facet normal -0.88702 0 0.461732
    outer loop
      vertex 8.91006 4 -13.5899
      vertex 8.82948 -4 -13.7447
      vertex 8.91006 -4 -13.5899
    endloop
  endfacet
  facet normal -0.996919 0 0.0784358
    outer loop
      vertex 9.96195 -4 -9.92156
      vertex 9.97564 4 -9.74756
      vertex 9.96195 4 -9.92156
    endloop
  endfacet
  facet normal -0.996919 0 0.0784358
    outer loop
      vertex 9.97564 4 -9.74756
      vertex 9.96195 -4 -9.92156
      vertex 9.97564 -4 -9.74756
    endloop
  endfacet
  facet normal -0.81412 0 -0.580696
    outer loop
      vertex 8.19152 -4 -3.31424
      vertex 8.09017 4 -3.17215
      vertex 8.19152 4 -3.31424
    endloop
  endfacet
  facet normal -0.81412 -0 -0.580696
    outer loop
      vertex 8.09017 4 -3.17215
      vertex 8.19152 -4 -3.31424
      vertex 8.09017 -4 -3.17215
    endloop
  endfacet
  facet normal -0.843388 0 0.537305
    outer loop
      vertex 8.39715 -4 -14.48
      vertex 8.48048 4 -14.3492
      vertex 8.39715 4 -14.48
    endloop
  endfacet
  facet normal -0.843388 0 0.537305
    outer loop
      vertex 8.48048 4 -14.3492
      vertex 8.39715 -4 -14.48
      vertex 8.48048 -4 -14.3492
    endloop
  endfacet
  facet normal -0.999657 0 0.0261846
    outer loop
      vertex 9.99391 -4 -9.39899
      vertex 9.99848 4 -9.22452
      vertex 9.99391 4 -9.39899
    endloop
  endfacet
  facet normal -0.999657 0 0.0261846
    outer loop
      vertex 9.99848 4 -9.22452
      vertex 9.99391 -4 -9.39899
      vertex 9.99848 -4 -9.22452
    endloop
  endfacet
  facet normal -0.991446 0 -0.13052
    outer loop
      vertex 9.92546 -4 -7.83131
      vertex 9.90268 4 -7.65827
      vertex 9.92546 4 -7.83131
    endloop
  endfacet
  facet normal -0.991446 -0 -0.13052
    outer loop
      vertex 9.90268 4 -7.65827
      vertex 9.92546 -4 -7.83131
      vertex 9.90268 -4 -7.65827
    endloop
  endfacet
  facet normal -0.999962 0 0.00870927
    outer loop
      vertex 9.99848 -4 -9.22452
      vertex 10 4 -9.05
      vertex 9.99848 4 -9.22452
    endloop
  endfacet
  facet normal -0.999962 0 0.00870927
    outer loop
      vertex 10 4 -9.05
      vertex 9.99848 -4 -9.22452
      vertex 10 -4 -9.05
    endloop
  endfacet
  facet normal -0.99357 0 -0.113217
    outer loop
      vertex 9.94522 -4 -8.00472
      vertex 9.92546 4 -7.83131
      vertex 9.94522 4 -8.00472
    endloop
  endfacet
  facet normal -0.99357 -0 -0.113217
    outer loop
      vertex 9.92546 4 -7.83131
      vertex 9.94522 -4 -8.00472
      vertex 9.92546 -4 -7.83131
    endloop
  endfacet
  facet normal -0.737261 0 -0.675608
    outer loop
      vertex 7.43145 -4 -2.35869
      vertex 7.31354 4 -2.23002
      vertex 7.43145 4 -2.35869
    endloop
  endfacet
  facet normal -0.737261 -0 -0.675608
    outer loop
      vertex 7.31354 4 -2.23002
      vertex 7.43145 -4 -2.35869
      vertex 7.31354 -4 -2.23002
    endloop
  endfacet
  facet normal -0.894931 0 0.446205
    outer loop
      vertex 8.91006 -4 -13.5899
      vertex 8.98794 4 -13.4337
      vertex 8.91006 4 -13.5899
    endloop
  endfacet
  facet normal -0.894931 0 0.446205
    outer loop
      vertex 8.98794 4 -13.4337
      vertex 8.91006 -4 -13.5899
      vertex 8.98794 -4 -13.4337
    endloop
  endfacet
  facet normal 0.446204 0 -0.894931
    outer loop
      vertex -4.5399 -4 -0.139935
      vertex -4.38371 4 -0.0620602
      vertex -4.38371 -4 -0.0620602
    endloop
  endfacet
  facet normal 0.446204 0 -0.894931
    outer loop
      vertex -4.38371 4 -0.0620602
      vertex -4.5399 -4 -0.139935
      vertex -4.5399 4 -0.139935
    endloop
  endfacet
  facet normal -0.748959 0 -0.662616
    outer loop
      vertex 7.5471 -4 -2.48941
      vertex 7.43145 4 -2.35869
      vertex 7.5471 4 -2.48941
    endloop
  endfacet
  facet normal -0.748959 -0 -0.662616
    outer loop
      vertex 7.43145 4 -2.35869
      vertex 7.5471 -4 -2.48941
      vertex 7.43145 -4 -2.35869
    endloop
  endfacet
  facet normal -0.972375 0 -0.233425
    outer loop
      vertex 9.7437 -4 -6.80049
      vertex 9.70296 4 -6.63078
      vertex 9.7437 4 -6.80049
    endloop
  endfacet
  facet normal -0.972375 -0 -0.233425
    outer loop
      vertex 9.70296 4 -6.63078
      vertex 9.7437 -4 -6.80049
      vertex 9.70296 -4 -6.63078
    endloop
  endfacet
  facet normal -0.700892 0 -0.713268
    outer loop
      vertex 6.94658 -4 -1.8566
      vertex 7.07107 4 -1.97893
      vertex 7.07107 -4 -1.97893
    endloop
  endfacet
  facet normal -0.700892 0 -0.713268
    outer loop
      vertex 7.07107 4 -1.97893
      vertex 6.94658 -4 -1.8566
      vertex 6.94658 4 -1.8566
    endloop
  endfacet
  facet normal -0.594836 0 -0.803847
    outer loop
      vertex 5.87785 -4 -0.95983
      vertex 6.01815 4 -1.06365
      vertex 6.01815 -4 -1.06365
    endloop
  endfacet
  facet normal -0.594836 0 -0.803847
    outer loop
      vertex 6.01815 4 -1.06365
      vertex 5.87785 -4 -0.95983
      vertex 5.87785 4 -0.95983
    endloop
  endfacet
  facet normal -0.771629 0 -0.636073
    outer loop
      vertex 7.77146 -4 -2.7568
      vertex 7.66044 4 -2.62212
      vertex 7.77146 4 -2.7568
    endloop
  endfacet
  facet normal -0.771629 -0 -0.636073
    outer loop
      vertex 7.66044 4 -2.62212
      vertex 7.77146 -4 -2.7568
      vertex 7.66044 -4 -2.62212
    endloop
  endfacet
  facet normal -0.477156 0 -0.878818
    outer loop
      vertex 4.69472 -4 -0.220525
      vertex 4.8481 4 -0.303803
      vertex 4.8481 -4 -0.303803
    endloop
  endfacet
  facet normal -0.477156 0 -0.878818
    outer loop
      vertex 4.8481 4 -0.303803
      vertex 4.69472 -4 -0.220525
      vertex 4.69472 4 -0.220525
    endloop
  endfacet
  facet normal -0.824104 0 -0.566439
    outer loop
      vertex 8.29038 -4 -3.45807
      vertex 8.19152 4 -3.31424
      vertex 8.29038 4 -3.45807
    endloop
  endfacet
  facet normal -0.824104 -0 -0.566439
    outer loop
      vertex 8.19152 4 -3.31424
      vertex 8.29038 -4 -3.45807
      vertex 8.19152 -4 -3.31424
    endloop
  endfacet
  facet normal -0.976292 0 0.216457
    outer loop
      vertex 9.7437 -4 -11.2995
      vertex 9.78148 4 -11.1291
      vertex 9.7437 4 -11.2995
    endloop
  endfacet
  facet normal -0.976292 0 0.216457
    outer loop
      vertex 9.78148 4 -11.1291
      vertex 9.7437 -4 -11.2995
      vertex 9.78148 -4 -11.1291
    endloop
  endfacet
  facet normal -0.923841 0 0.382775
    outer loop
      vertex 9.20505 -4 -12.9573
      vertex 9.27184 4 -12.7961
      vertex 9.20505 4 -12.9573
    endloop
  endfacet
  facet normal -0.923841 0 0.382775
    outer loop
      vertex 9.27184 4 -12.7961
      vertex 9.20505 -4 -12.9573
      vertex 9.27184 -4 -12.7961
    endloop
  endfacet
  facet normal -0.662616 0 -0.748959
    outer loop
      vertex 6.56059 -4 -1.5029
      vertex 6.69131 4 -1.61855
      vertex 6.69131 -4 -1.61855
    endloop
  endfacet
  facet normal -0.662616 0 -0.748959
    outer loop
      vertex 6.69131 4 -1.61855
      vertex 6.56059 -4 -1.5029
      vertex 6.56059 4 -1.5029
    endloop
  endfacet
  facet normal 0.46173 0 -0.887021
    outer loop
      vertex -4.69472 -4 -0.220525
      vertex -4.5399 4 -0.139935
      vertex -4.5399 -4 -0.139935
    endloop
  endfacet
  facet normal 0.46173 0 -0.887021
    outer loop
      vertex -4.5399 4 -0.139935
      vertex -4.69472 -4 -0.220525
      vertex -4.69472 4 -0.220525
    endloop
  endfacet
  facet normal -0.537293 0 -0.843396
    outer loop
      vertex 5.29919 -4 -0.56952
      vertex 5.44639 4 -0.663295
      vertex 5.44639 -4 -0.663295
    endloop
  endfacet
  facet normal -0.537293 0 -0.843396
    outer loop
      vertex 5.44639 4 -0.663295
      vertex 5.29919 -4 -0.56952
      vertex 5.29919 4 -0.56952
    endloop
  endfacet
  facet normal -0.979925 0 0.199366
    outer loop
      vertex 9.78148 -4 -11.1291
      vertex 9.81627 4 -10.9581
      vertex 9.78148 4 -11.1291
    endloop
  endfacet
  facet normal -0.979925 0 0.199366
    outer loop
      vertex 9.81627 4 -10.9581
      vertex 9.78148 -4 -11.1291
      vertex 9.81627 -4 -10.9581
    endloop
  endfacet
  facet normal -0.90996 0 0.414696
    outer loop
      vertex 9.06308 -4 -13.2762
      vertex 9.13545 4 -13.1174
      vertex 9.06308 4 -13.2762
    endloop
  endfacet
  facet normal -0.90996 0 0.414696
    outer loop
      vertex 9.13545 4 -13.1174
      vertex 9.06308 -4 -13.2762
      vertex 9.13545 -4 -13.1174
    endloop
  endfacet
  facet normal -0.963639 0 0.267207
    outer loop
      vertex 9.61262 -4 -11.8064
      vertex 9.65926 4 -11.6382
      vertex 9.61262 4 -11.8064
    endloop
  endfacet
  facet normal -0.963639 0 0.267207
    outer loop
      vertex 9.65926 4 -11.6382
      vertex 9.61262 -4 -11.8064
      vertex 9.65926 -4 -11.6382
    endloop
  endfacet
  facet normal -0.99357 0 0.113223
    outer loop
      vertex 9.92546 -4 -10.2687
      vertex 9.94522 4 -10.0953
      vertex 9.92546 4 -10.2687
    endloop
  endfacet
  facet normal -0.99357 0 0.113223
    outer loop
      vertex 9.94522 4 -10.0953
      vertex 9.92546 -4 -10.2687
      vertex 9.94522 -4 -10.0953
    endloop
  endfacet
  facet normal -0.991442 0 0.130549
    outer loop
      vertex 9.90268 -4 -10.4417
      vertex 9.92546 4 -10.2687
      vertex 9.90268 4 -10.4417
    endloop
  endfacet
  facet normal -0.991442 0 0.130549
    outer loop
      vertex 9.92546 4 -10.2687
      vertex 9.90268 -4 -10.4417
      vertex 9.92546 -4 -10.2687
    endloop
  endfacet
  facet normal -0.958822 0 -0.284008
    outer loop
      vertex 9.61262 -4 -6.29363
      vertex 9.56305 4 -6.12628
      vertex 9.61262 4 -6.29363
    endloop
  endfacet
  facet normal -0.958822 -0 -0.284008
    outer loop
      vertex 9.56305 4 -6.12628
      vertex 9.61262 -4 -6.29363
      vertex 9.56305 -4 -6.12628
    endloop
  endfacet
  facet normal -0.963631 0 -0.267236
    outer loop
      vertex 9.65926 -4 -6.46181
      vertex 9.61262 4 -6.29363
      vertex 9.65926 4 -6.46181
    endloop
  endfacet
  facet normal -0.963631 -0 -0.267236
    outer loop
      vertex 9.61262 4 -6.29363
      vertex 9.65926 -4 -6.46181
      vertex 9.61262 -4 -6.29363
    endloop
  endfacet
  facet normal -0.923883 0 -0.382674
    outer loop
      vertex 9.27184 -4 -5.30394
      vertex 9.20505 4 -5.14269
      vertex 9.27184 4 -5.30394
    endloop
  endfacet
  facet normal -0.923883 -0 -0.382674
    outer loop
      vertex 9.20505 4 -5.14269
      vertex 9.27184 -4 -5.30394
      vertex 9.20505 -4 -5.14269
    endloop
  endfacet
  facet normal -0.430512 0 -0.902585
    outer loop
      vertex 4.2536 -4 -7.62939e-07
      vertex 4.38371 4 -0.0620602
      vertex 4.38371 -4 -0.0620602
    endloop
  endfacet
  facet normal -0.430512 0 -0.902585
    outer loop
      vertex 4.38371 4 -0.0620602
      vertex 4.2536 -4 -7.62939e-07
      vertex 4.2536 4 -7.62939e-07
    endloop
  endfacet
  facet normal -0.986292 0 -0.165012
    outer loop
      vertex 9.87688 -4 -7.48566
      vertex 9.84808 4 -7.31352
      vertex 9.87688 4 -7.48566
    endloop
  endfacet
  facet normal -0.986292 -0 -0.165012
    outer loop
      vertex 9.84808 4 -7.31352
      vertex 9.87688 -4 -7.48566
      vertex 9.84808 -4 -7.31352
    endloop
  endfacet
  facet normal -0.852642 0 -0.522495
    outer loop
      vertex 8.57167 -4 -3.89962
      vertex 8.48048 4 -3.75081
      vertex 8.57167 4 -3.89962
    endloop
  endfacet
  facet normal -0.852642 -0 -0.522495
    outer loop
      vertex 8.48048 4 -3.75081
      vertex 8.57167 -4 -3.89962
      vertex 8.48048 -4 -3.75081
    endloop
  endfacet
  facet normal -0.870333 0 -0.492463
    outer loop
      vertex 8.7462 -4 -4.2019
      vertex 8.66025 4 -4.05
      vertex 8.7462 4 -4.2019
    endloop
  endfacet
  facet normal -0.870333 -0 -0.492463
    outer loop
      vertex 8.66025 4 -4.05
      vertex 8.7462 -4 -4.2019
      vertex 8.66025 -4 -4.05
    endloop
  endfacet
  facet normal -0.852627 0 0.52252
    outer loop
      vertex 8.48048 -4 -14.3492
      vertex 8.57167 4 -14.2004
      vertex 8.48048 4 -14.3492
    endloop
  endfacet
  facet normal -0.852627 0 0.52252
    outer loop
      vertex 8.57167 4 -14.2004
      vertex 8.48048 -4 -14.3492
      vertex 8.57167 -4 -14.2004
    endloop
  endfacet
  facet normal -0.566423 0 -0.824114
    outer loop
      vertex 5.59193 -4 -0.759624
      vertex 5.73576 4 -0.85848
      vertex 5.73576 -4 -0.85848
    endloop
  endfacet
  facet normal -0.566423 0 -0.824114
    outer loop
      vertex 5.73576 4 -0.85848
      vertex 5.59193 -4 -0.759624
      vertex 5.59193 4 -0.759624
    endloop
  endfacet
  facet normal -0.983251 0 -0.182257
    outer loop
      vertex 9.84808 -4 -7.31352
      vertex 9.81627 4 -7.14191
      vertex 9.84808 4 -7.31352
    endloop
  endfacet
  facet normal -0.983251 -0 -0.182257
    outer loop
      vertex 9.81627 4 -7.14191
      vertex 9.84808 -4 -7.31352
      vertex 9.81627 -4 -7.14191
    endloop
  endfacet
  facet normal -0.953703 0 -0.30075
    outer loop
      vertex 9.56305 -4 -6.12628
      vertex 9.51056 4 -5.95983
      vertex 9.56305 4 -6.12628
    endloop
  endfacet
  facet normal -0.953703 -0 -0.30075
    outer loop
      vertex 9.51056 4 -5.95983
      vertex 9.56305 -4 -6.12628
      vertex 9.51056 -4 -5.95983
    endloop
  endfacet
  facet normal -0.999047 0 0.0436585
    outer loop
      vertex 9.98629 -4 -9.57336
      vertex 9.99391 4 -9.39899
      vertex 9.98629 4 -9.57336
    endloop
  endfacet
  facet normal -0.999047 0 0.0436585
    outer loop
      vertex 9.99391 4 -9.39899
      vertex 9.98629 -4 -9.57336
      vertex 9.99391 -4 -9.39899
    endloop
  endfacet
  facet normal -0.688358 0 -0.725371
    outer loop
      vertex 6.81998 -4 -1.73646
      vertex 6.94658 4 -1.8566
      vertex 6.94658 -4 -1.8566
    endloop
  endfacet
  facet normal -0.688358 0 -0.725371
    outer loop
      vertex 6.94658 4 -1.8566
      vertex 6.81998 -4 -1.73646
      vertex 6.81998 4 -1.73646
    endloop
  endfacet
  facet normal -0.902581 0 -0.430521
    outer loop
      vertex 9.06308 -4 -4.82382
      vertex 8.98794 4 -4.66629
      vertex 9.06308 4 -4.82382
    endloop
  endfacet
  facet normal -0.902581 -0 -0.430521
    outer loop
      vertex 8.98794 4 -4.66629
      vertex 9.06308 -4 -4.82382
      vertex 8.98794 -4 -4.66629
    endloop
  endfacet
  facet normal -0.492433 0 -0.870351
    outer loop
      vertex 4.8481 -4 -0.303803
      vertex 5 4 -0.389746
      vertex 5 -4 -0.389746
    endloop
  endfacet
  facet normal -0.492433 0 -0.870351
    outer loop
      vertex 5 4 -0.389746
      vertex 4.8481 -4 -0.303803
      vertex 4.8481 4 -0.303803
    endloop
  endfacet
  facet normal -0.713268 0 -0.700892
    outer loop
      vertex 7.1934 -4 -2.10342
      vertex 7.07107 4 -1.97893
      vertex 7.1934 4 -2.10342
    endloop
  endfacet
  facet normal -0.713268 -0 -0.700892
    outer loop
      vertex 7.07107 4 -1.97893
      vertex 7.1934 -4 -2.10342
      vertex 7.07107 -4 -1.97893
    endloop
  endfacet
  facet normal -0.87884 0 0.477117
    outer loop
      vertex 8.7462 -4 -13.8981
      vertex 8.82948 4 -13.7447
      vertex 8.7462 4 -13.8981
    endloop
  endfacet
  facet normal -0.87884 0 0.477117
    outer loop
      vertex 8.82948 4 -13.7447
      vertex 8.7462 -4 -13.8981
      vertex 8.82948 -4 -13.7447
    endloop
  endfacet
  facet normal -0.649431 0 -0.76042
    outer loop
      vertex 6.42788 -4 -1.38956
      vertex 6.56059 4 -1.5029
      vertex 6.56059 -4 -1.5029
    endloop
  endfacet
  facet normal -0.649431 0 -0.76042
    outer loop
      vertex 6.56059 4 -1.5029
      vertex 6.42788 -4 -1.38956
      vertex 6.42788 4 -1.38956
    endloop
  endfacet
  facet normal -0.887044 0 -0.461685
    outer loop
      vertex 8.91006 -4 -4.5101
      vertex 8.82948 4 -4.35528
      vertex 8.91006 4 -4.5101
    endloop
  endfacet
  facet normal -0.887044 -0 -0.461685
    outer loop
      vertex 8.82948 4 -4.35528
      vertex 8.91006 -4 -4.5101
      vertex 8.82948 -4 -4.35528
    endloop
  endfacet
  facet normal -0.995396 0 0.09585
    outer loop
      vertex 9.94522 -4 -10.0953
      vertex 9.96195 4 -9.92156
      vertex 9.94522 4 -10.0953
    endloop
  endfacet
  facet normal -0.995396 0 0.09585
    outer loop
      vertex 9.96195 4 -9.92156
      vertex 9.94522 -4 -10.0953
      vertex 9.96195 -4 -9.92156
    endloop
  endfacet
  facet normal -0.580696 0 -0.81412
    outer loop
      vertex 5.73576 -4 -0.85848
      vertex 5.87785 4 -0.95983
      vertex 5.87785 -4 -0.95983
    endloop
  endfacet
  facet normal -0.580696 0 -0.81412
    outer loop
      vertex 5.87785 4 -0.95983
      vertex 5.73576 -4 -0.85848
      vertex 5.73576 4 -0.85848
    endloop
  endfacet
  facet normal -0.446204 0 -0.894931
    outer loop
      vertex 4.38371 -4 -0.0620602
      vertex 4.5399 4 -0.139935
      vertex 4.5399 -4 -0.139935
    endloop
  endfacet
  facet normal -0.446204 0 -0.894931
    outer loop
      vertex 4.5399 4 -0.139935
      vertex 4.38371 -4 -0.0620602
      vertex 4.38371 4 -0.0620602
    endloop
  endfacet
  facet normal -0.917088 0 0.398684
    outer loop
      vertex 9.13545 -4 -13.1174
      vertex 9.20505 4 -12.9573
      vertex 9.13545 4 -13.1174
    endloop
  endfacet
  facet normal -0.917088 0 0.398684
    outer loop
      vertex 9.20505 4 -12.9573
      vertex 9.13545 -4 -13.1174
      vertex 9.20505 -4 -12.9573
    endloop
  endfacet
  facet normal -0.608747 0 -0.793365
    outer loop
      vertex 6.01815 -4 -1.06365
      vertex 6.15661 4 -1.16989
      vertex 6.15661 -4 -1.16989
    endloop
  endfacet
  facet normal -0.608747 0 -0.793365
    outer loop
      vertex 6.15661 4 -1.16989
      vertex 6.01815 -4 -1.06365
      vertex 6.01815 4 -1.06365
    endloop
  endfacet
  facet normal -0.948316 0 0.317328
    outer loop
      vertex 9.45518 -4 -12.3057
      vertex 9.51056 4 -12.1402
      vertex 9.45518 4 -12.3057
    endloop
  endfacet
  facet normal -0.948316 0 0.317328
    outer loop
      vertex 9.51056 4 -12.1402
      vertex 9.45518 -4 -12.3057
      vertex 9.51056 -4 -12.1402
    endloop
  endfacet
  facet normal -0.902549 0 0.430587
    outer loop
      vertex 8.98794 -4 -13.4337
      vertex 9.06308 4 -13.2762
      vertex 8.98794 4 -13.4337
    endloop
  endfacet
  facet normal -0.902549 0 0.430587
    outer loop
      vertex 9.06308 4 -13.2762
      vertex 8.98794 -4 -13.4337
      vertex 9.06308 -4 -13.2762
    endloop
  endfacet
  facet normal -0.995395 0 -0.0958609
    outer loop
      vertex 9.96195 -4 -8.17844
      vertex 9.94522 4 -8.00472
      vertex 9.96195 4 -8.17844
    endloop
  endfacet
  facet normal -0.995395 -0 -0.0958609
    outer loop
      vertex 9.94522 4 -8.00472
      vertex 9.96195 -4 -8.17844
      vertex 9.94522 -4 -8.00472
    endloop
  endfacet
  facet normal -0.522503 0 -0.852637
    outer loop
      vertex 5.15038 -4 -0.478328
      vertex 5.29919 4 -0.56952
      vertex 5.29919 -4 -0.56952
    endloop
  endfacet
  facet normal -0.522503 0 -0.852637
    outer loop
      vertex 5.29919 4 -0.56952
      vertex 5.15038 -4 -0.478328
      vertex 5.15038 4 -0.478328
    endloop
  endfacet
  facet normal -0.930424 0 -0.366485
    outer loop
      vertex 9.3358 -4 -5.46632
      vertex 9.27184 4 -5.30394
      vertex 9.3358 4 -5.46632
    endloop
  endfacet
  facet normal -0.930424 -0 -0.366485
    outer loop
      vertex 9.27184 4 -5.30394
      vertex 9.3358 -4 -5.46632
      vertex 9.27184 -4 -5.30394
    endloop
  endfacet
  facet normal -0.803847 0 -0.594836
    outer loop
      vertex 8.09017 -4 -3.17215
      vertex 7.98635 4 -3.03185
      vertex 8.09017 4 -3.17215
    endloop
  endfacet
  facet normal -0.803847 -0 -0.594836
    outer loop
      vertex 7.98635 4 -3.03185
      vertex 8.09017 -4 -3.17215
      vertex 7.98635 -4 -3.03185
    endloop
  endfacet
  facet normal -0.942659 0 -0.333758
    outer loop
      vertex 9.45518 -4 -5.79432
      vertex 9.39693 4 -5.6298
      vertex 9.45518 4 -5.79432
    endloop
  endfacet
  facet normal -0.942659 -0 -0.333758
    outer loop
      vertex 9.39693 4 -5.6298
      vertex 9.45518 -4 -5.79432
      vertex 9.39693 -4 -5.6298
    endloop
  endfacet
  facet normal -0.793365 0 -0.608747
    outer loop
      vertex 7.98635 -4 -3.03185
      vertex 7.88011 4 -2.89339
      vertex 7.98635 4 -3.03185
    endloop
  endfacet
  facet normal -0.793365 -0 -0.608747
    outer loop
      vertex 7.88011 4 -2.89339
      vertex 7.98635 -4 -3.03185
      vertex 7.88011 -4 -2.89339
    endloop
  endfacet
  facet normal 0 0 -1
    outer loop
      vertex -4.2536 -4 -7.62939e-07
      vertex -2.675 4 -7.62939e-07
      vertex -2.675 -4 -7.62939e-07
    endloop
  endfacet
  facet normal -0 0 -1
    outer loop
      vertex -2.675 4 -7.62939e-07
      vertex -4.2536 -4 -7.62939e-07
      vertex -4.2536 4 -7.62939e-07
    endloop
  endfacet
  facet normal 0 0 -1
    outer loop
      vertex 2.675 -4 -7.62939e-07
      vertex 4.2536 4 -7.62939e-07
      vertex 4.2536 -4 -7.62939e-07
    endloop
  endfacet
  facet normal -0 0 -1
    outer loop
      vertex 4.2536 4 -7.62939e-07
      vertex 2.675 -4 -7.62939e-07
      vertex 2.675 4 -7.62939e-07
    endloop
  endfacet
  facet normal 1 -0 0
    outer loop
      vertex 4 -4 -1.2
      vertex 4 4 -4.3
      vertex 4 4 -1.2
    endloop
  endfacet
  facet normal 1 0 0
    outer loop
      vertex 4 4 -4.3
      vertex 4 -4 -1.2
      vertex 4 -4 -4.3
    endloop
  endfacet
  facet normal -0 0 1
    outer loop
      vertex -4 4 -1.2
      vertex -2.675 -4 -1.2
      vertex -2.675 4 -1.2
    endloop
  endfacet
  facet normal 0 0 1
    outer loop
      vertex -2.675 -4 -1.2
      vertex -4 4 -1.2
      vertex -4 -4 -1.2
    endloop
  endfacet
  facet normal -0 0 1
    outer loop
      vertex 2.675 4 -1.2
      vertex 4 -4 -1.2
      vertex 4 4 -1.2
    endloop
  endfacet
  facet normal 0 0 1
    outer loop
      vertex 4 -4 -1.2
      vertex 2.675 4 -1.2
      vertex 2.675 -4 -1.2
    endloop
  endfacet
  facet normal 0 0 -1
    outer loop
      vertex -4 -4 -4.3
      vertex 4 4 -4.3
      vertex 4 -4 -4.3
    endloop
  endfacet
  facet normal -0 0 -1
    outer loop
      vertex 4 4 -4.3
      vertex -4 -4 -4.3
      vertex -4 4 -4.3
    endloop
  endfacet
  facet normal -1 0 0
    outer loop
      vertex -4 -4 -4.3
      vertex -4 4 -1.2
      vertex -4 4 -4.3
    endloop
  endfacet
  facet normal -1 -0 0
    outer loop
      vertex -4 4 -1.2
      vertex -4 -4 -4.3
      vertex -4 -4 -1.2
    endloop
  endfacet
  facet normal 0 1 -0
    outer loop
      vertex 4 4 -4.3
      vertex 2.675 4 -1.2
      vertex 4 4 -1.2
    endloop
  endfacet
  facet normal 0 1 0
    outer loop
      vertex 2.675 4 -1.2
      vertex 4 4 -4.3
      vertex -2.675 4 -1.2
    endloop
  endfacet
  facet normal 0 1 0
    outer loop
      vertex -4 4 -4.3
      vertex -2.675 4 -1.2
      vertex 4 4 -4.3
    endloop
  endfacet
  facet normal 0 1 0
    outer loop
      vertex -2.675 4 -1.2
      vertex -4 4 -4.3
      vertex -4 4 -1.2
    endloop
  endfacet
  facet normal 0 1 -0
    outer loop
      vertex 2.675 4 -1.2
      vertex -2.675 4 -7.62939e-07
      vertex 2.675 4 -7.62939e-07
    endloop
  endfacet
  facet normal 0 1 0
    outer loop
      vertex -2.675 4 -7.62939e-07
      vertex 2.675 4 -1.2
      vertex -2.675 4 -1.2
    endloop
  endfacet
  facet normal 0 1 0
    outer loop
      vertex 13 4 4
      vertex 4.2536 4 -7.62939e-07
      vertex -5 4 4
    endloop
  endfacet
  facet normal 0 1 0
    outer loop
      vertex 13 4 4
      vertex 4.38371 4 -0.0620602
      vertex 4.2536 4 -7.62939e-07
    endloop
  endfacet
  facet normal 0 1 0
    outer loop
      vertex 13 4 4
      vertex 4.5399 4 -0.139935
      vertex 4.38371 4 -0.0620602
    endloop
  endfacet
  facet normal 0 1 0
    outer loop
      vertex 13 4 4
      vertex 4.69472 4 -0.220525
      vertex 4.5399 4 -0.139935
    endloop
  endfacet
  facet normal 0 1 0
    outer loop
      vertex 13 4 4
      vertex 4.8481 4 -0.303803
      vertex 4.69472 4 -0.220525
    endloop
  endfacet
  facet normal 0 1 0
    outer loop
      vertex 13 4 4
      vertex 5 4 -0.389746
      vertex 4.8481 4 -0.303803
    endloop
  endfacet
  facet normal 0 1 0
    outer loop
      vertex 13 4 4
      vertex 5.15038 4 -0.478328
      vertex 5 4 -0.389746
    endloop
  endfacet
  facet normal 0 1 0
    outer loop
      vertex 13 4 4
      vertex 5.29919 4 -0.56952
      vertex 5.15038 4 -0.478328
    endloop
  endfacet
  facet normal 0 1 0
    outer loop
      vertex 13 4 4
      vertex 5.44639 4 -0.663295
      vertex 5.29919 4 -0.56952
    endloop
  endfacet
  facet normal 0 1 0
    outer loop
      vertex 13 4 4
      vertex 5.59193 4 -0.759624
      vertex 5.44639 4 -0.663295
    endloop
  endfacet
  facet normal 0 1 0
    outer loop
      vertex 13 4 4
      vertex 5.73576 4 -0.85848
      vertex 5.59193 4 -0.759624
    endloop
  endfacet
  facet normal 0 1 0
    outer loop
      vertex 13 4 4
      vertex 5.87785 4 -0.95983
      vertex 5.73576 4 -0.85848
    endloop
  endfacet
  facet normal 0 1 0
    outer loop
      vertex 13 4 4
      vertex 6.01815 4 -1.06365
      vertex 5.87785 4 -0.95983
    endloop
  endfacet
  facet normal 0 1 0
    outer loop
      vertex 13 4 4
      vertex 6.15661 4 -1.16989
      vertex 6.01815 4 -1.06365
    endloop
  endfacet
  facet normal 0 1 0
    outer loop
      vertex 13 4 4
      vertex 6.2932 4 -1.27854
      vertex 6.15661 4 -1.16989
    endloop
  endfacet
  facet normal 0 1 0
    outer loop
      vertex 13 4 4
      vertex 6.42788 4 -1.38956
      vertex 6.2932 4 -1.27854
    endloop
  endfacet
  facet normal 0 1 0
    outer loop
      vertex 13 4 4
      vertex 6.56059 4 -1.5029
      vertex 6.42788 4 -1.38956
    endloop
  endfacet
  facet normal 0 1 0
    outer loop
      vertex 13 4 4
      vertex 6.69131 4 -1.61855
      vertex 6.56059 4 -1.5029
    endloop
  endfacet
  facet normal 0 1 0
    outer loop
      vertex 13 4 4
      vertex 6.81998 4 -1.73646
      vertex 6.69131 4 -1.61855
    endloop
  endfacet
  facet normal 0 1 0
    outer loop
      vertex 13 4 4
      vertex 6.94658 4 -1.8566
      vertex 6.81998 4 -1.73646
    endloop
  endfacet
  facet normal 0 1 0
    outer loop
      vertex 13 4 4
      vertex 7.07107 4 -1.97893
      vertex 6.94658 4 -1.8566
    endloop
  endfacet
  facet normal 0 1 0
    outer loop
      vertex 13 4 4
      vertex 7.1934 4 -2.10342
      vertex 7.07107 4 -1.97893
    endloop
  endfacet
  facet normal 0 1 0
    outer loop
      vertex 13 4 4
      vertex 7.31354 4 -2.23002
      vertex 7.1934 4 -2.10342
    endloop
  endfacet
  facet normal 0 1 0
    outer loop
      vertex 13 4 4
      vertex 7.43145 4 -2.35869
      vertex 7.31354 4 -2.23002
    endloop
  endfacet
  facet normal 0 1 0
    outer loop
      vertex 13 4 4
      vertex 7.5471 4 -2.48941
      vertex 7.43145 4 -2.35869
    endloop
  endfacet
  facet normal 0 1 0
    outer loop
      vertex 13 4 4
      vertex 7.66044 4 -2.62212
      vertex 7.5471 4 -2.48941
    endloop
  endfacet
  facet normal 0 1 0
    outer loop
      vertex 13 4 4
      vertex 7.77146 4 -2.7568
      vertex 7.66044 4 -2.62212
    endloop
  endfacet
  facet normal 0 1 0
    outer loop
      vertex 13 4 4
      vertex 7.88011 4 -2.89339
      vertex 7.77146 4 -2.7568
    endloop
  endfacet
  facet normal 0 1 0
    outer loop
      vertex 13 4 4
      vertex 7.98635 4 -3.03185
      vertex 7.88011 4 -2.89339
    endloop
  endfacet
  facet normal 0 1 0
    outer loop
      vertex 13 4 4
      vertex 8.09017 4 -3.17215
      vertex 7.98635 4 -3.03185
    endloop
  endfacet
  facet normal 0 1 0
    outer loop
      vertex 13 4 4
      vertex 8.19152 4 -3.31424
      vertex 8.09017 4 -3.17215
    endloop
  endfacet
  facet normal 0 1 0
    outer loop
      vertex 13 4 4
      vertex 8.29038 4 -3.45807
      vertex 8.19152 4 -3.31424
    endloop
  endfacet
  facet normal 0 1 0
    outer loop
      vertex 13 4 4
      vertex 8.38671 4 -3.60361
      vertex 8.29038 4 -3.45807
    endloop
  endfacet
  facet normal 0 1 0
    outer loop
      vertex 13 4 4
      vertex 8.48048 4 -3.75081
      vertex 8.38671 4 -3.60361
    endloop
  endfacet
  facet normal 0 1 0
    outer loop
      vertex 13 4 4
      vertex 8.57167 4 -3.89962
      vertex 8.48048 4 -3.75081
    endloop
  endfacet
  facet normal 0 1 0
    outer loop
      vertex 13 4 4
      vertex 8.66025 4 -4.05
      vertex 8.57167 4 -3.89962
    endloop
  endfacet
  facet normal 0 1 0
    outer loop
      vertex 13 4 4
      vertex 8.7462 4 -4.2019
      vertex 8.66025 4 -4.05
    endloop
  endfacet
  facet normal 0 1 0
    outer loop
      vertex 13 4 4
      vertex 8.82948 4 -4.35528
      vertex 8.7462 4 -4.2019
    endloop
  endfacet
  facet normal 0 1 0
    outer loop
      vertex 13 4 4
      vertex 8.91006 4 -4.5101
      vertex 8.82948 4 -4.35528
    endloop
  endfacet
  facet normal 0 1 0
    outer loop
      vertex 13 4 4
      vertex 8.98794 4 -4.66629
      vertex 8.91006 4 -4.5101
    endloop
  endfacet
  facet normal 0 1 0
    outer loop
      vertex 13 4 4
      vertex 9.06308 4 -4.82382
      vertex 8.98794 4 -4.66629
    endloop
  endfacet
  facet normal 0 1 0
    outer loop
      vertex 13 4 4
      vertex 9.13545 4 -4.98263
      vertex 9.06308 4 -4.82382
    endloop
  endfacet
  facet normal 0 1 0
    outer loop
      vertex 13 4 4
      vertex 9.20505 4 -5.14269
      vertex 9.13545 4 -4.98263
    endloop
  endfacet
  facet normal 0 1 0
    outer loop
      vertex 13 4 4
      vertex 9.27184 4 -5.30394
      vertex 9.20505 4 -5.14269
    endloop
  endfacet
  facet normal 0 1 0
    outer loop
      vertex 13 4 4
      vertex 9.3358 4 -5.46632
      vertex 9.27184 4 -5.30394
    endloop
  endfacet
  facet normal 0 1 0
    outer loop
      vertex 13 4 4
      vertex 9.39693 4 -5.6298
      vertex 9.3358 4 -5.46632
    endloop
  endfacet
  facet normal 0 1 0
    outer loop
      vertex 13 4 4
      vertex 9.45518 4 -5.79432
      vertex 9.39693 4 -5.6298
    endloop
  endfacet
  facet normal 0 1 0
    outer loop
      vertex 13 4 4
      vertex 9.51056 4 -5.95983
      vertex 9.45518 4 -5.79432
    endloop
  endfacet
  facet normal 0 1 0
    outer loop
      vertex 13 4 4
      vertex 9.56305 4 -6.12628
      vertex 9.51056 4 -5.95983
    endloop
  endfacet
  facet normal 0 1 0
    outer loop
      vertex 13 4 4
      vertex 9.61262 4 -6.29363
      vertex 9.56305 4 -6.12628
    endloop
  endfacet
  facet normal 0 1 0
    outer loop
      vertex 13 4 4
      vertex 9.65926 4 -6.46181
      vertex 9.61262 4 -6.29363
    endloop
  endfacet
  facet normal 0 1 0
    outer loop
      vertex 13 4 4
      vertex 9.70296 4 -6.63078
      vertex 9.65926 4 -6.46181
    endloop
  endfacet
  facet normal 0 1 0
    outer loop
      vertex 13 4 4
      vertex 9.7437 4 -6.80049
      vertex 9.70296 4 -6.63078
    endloop
  endfacet
  facet normal 0 1 0
    outer loop
      vertex 13 4 4
      vertex 9.78148 4 -6.97088
      vertex 9.7437 4 -6.80049
    endloop
  endfacet
  facet normal 0 1 0
    outer loop
      vertex 13 4 4
      vertex 9.81627 4 -7.14191
      vertex 9.78148 4 -6.97088
    endloop
  endfacet
  facet normal 0 1 0
    outer loop
      vertex 13 4 4
      vertex 9.84808 4 -7.31352
      vertex 9.81627 4 -7.14191
    endloop
  endfacet
  facet normal 0 1 0
    outer loop
      vertex 13 4 4
      vertex 9.87688 4 -7.48566
      vertex 9.84808 4 -7.31352
    endloop
  endfacet
  facet normal 0 1 -0
    outer loop
      vertex 13 4 -14.48
      vertex 9.87688 4 -7.48566
      vertex 13 4 4
    endloop
  endfacet
  facet normal 0 1 0
    outer loop
      vertex 9.87688 4 -7.48566
      vertex 13 4 -14.48
      vertex 9.90268 4 -7.65827
    endloop
  endfacet
  facet normal 0 1 0
    outer loop
      vertex 9.90268 4 -7.65827
      vertex 13 4 -14.48
      vertex 9.92546 4 -7.83131
    endloop
  endfacet
  facet normal 0 1 0
    outer loop
      vertex 9.92546 4 -7.83131
      vertex 13 4 -14.48
      vertex 9.94522 4 -8.00472
    endloop
  endfacet
  facet normal 0 1 0
    outer loop
      vertex 9.94522 4 -8.00472
      vertex 13 4 -14.48
      vertex 9.96195 4 -8.17844
    endloop
  endfacet
  facet normal 0 1 0
    outer loop
      vertex 9.96195 4 -8.17844
      vertex 13 4 -14.48
      vertex 9.97564 4 -8.35244
    endloop
  endfacet
  facet normal 0 1 0
    outer loop
      vertex 9.97564 4 -8.35244
      vertex 13 4 -14.48
      vertex 9.98629 4 -8.52664
    endloop
  endfacet
  facet normal 0 1 0
    outer loop
      vertex 9.98629 4 -8.52664
      vertex 13 4 -14.48
      vertex 9.99391 4 -8.70101
    endloop
  endfacet
  facet normal 0 1 0
    outer loop
      vertex 9.99391 4 -8.70101
      vertex 13 4 -14.48
      vertex 9.99848 4 -8.87548
    endloop
  endfacet
  facet normal 0 1 0
    outer loop
      vertex 9.99848 4 -8.87548
      vertex 13 4 -14.48
      vertex 10 4 -9.05
    endloop
  endfacet
  facet normal 0 1 0
    outer loop
      vertex 10 4 -9.05
      vertex 13 4 -14.48
      vertex 9.99848 4 -9.22452
    endloop
  endfacet
  facet normal 0 1 0
    outer loop
      vertex 9.99848 4 -9.22452
      vertex 13 4 -14.48
      vertex 9.99391 4 -9.39899
    endloop
  endfacet
  facet normal 0 1 0
    outer loop
      vertex 9.99391 4 -9.39899
      vertex 13 4 -14.48
      vertex 9.98629 4 -9.57336
    endloop
  endfacet
  facet normal 0 1 0
    outer loop
      vertex 9.98629 4 -9.57336
      vertex 13 4 -14.48
      vertex 9.97564 4 -9.74756
    endloop
  endfacet
  facet normal 0 1 0
    outer loop
      vertex 9.97564 4 -9.74756
      vertex 13 4 -14.48
      vertex 9.96195 4 -9.92156
    endloop
  endfacet
  facet normal 0 1 0
    outer loop
      vertex 9.96195 4 -9.92156
      vertex 13 4 -14.48
      vertex 9.94522 4 -10.0953
    endloop
  endfacet
  facet normal 0 1 0
    outer loop
      vertex 9.94522 4 -10.0953
      vertex 13 4 -14.48
      vertex 9.92546 4 -10.2687
    endloop
  endfacet
  facet normal 0 1 0
    outer loop
      vertex 9.92546 4 -10.2687
      vertex 13 4 -14.48
      vertex 9.90268 4 -10.4417
    endloop
  endfacet
  facet normal 0 1 0
    outer loop
      vertex 9.90268 4 -10.4417
      vertex 13 4 -14.48
      vertex 9.87688 4 -10.6143
    endloop
  endfacet
  facet normal 0 1 0
    outer loop
      vertex 9.87688 4 -10.6143
      vertex 13 4 -14.48
      vertex 9.84808 4 -10.7865
    endloop
  endfacet
  facet normal 0 1 0
    outer loop
      vertex 9.84808 4 -10.7865
      vertex 13 4 -14.48
      vertex 9.81627 4 -10.9581
    endloop
  endfacet
  facet normal 0 1 0
    outer loop
      vertex 9.81627 4 -10.9581
      vertex 13 4 -14.48
      vertex 9.78148 4 -11.1291
    endloop
  endfacet
  facet normal 0 1 0
    outer loop
      vertex 13 4 -14.48
      vertex 9.7437 4 -11.2995
      vertex 9.78148 4 -11.1291
    endloop
  endfacet
  facet normal 0 1 0
    outer loop
      vertex 13 4 -14.48
      vertex 9.70296 4 -11.4692
      vertex 9.7437 4 -11.2995
    endloop
  endfacet
  facet normal 0 1 0
    outer loop
      vertex 13 4 -14.48
      vertex 9.65926 4 -11.6382
      vertex 9.70296 4 -11.4692
    endloop
  endfacet
  facet normal 0 1 0
    outer loop
      vertex 13 4 -14.48
      vertex 9.61262 4 -11.8064
      vertex 9.65926 4 -11.6382
    endloop
  endfacet
  facet normal 0 1 0
    outer loop
      vertex 13 4 -14.48
      vertex 9.56305 4 -11.9737
      vertex 9.61262 4 -11.8064
    endloop
  endfacet
  facet normal 0 1 0
    outer loop
      vertex 13 4 -14.48
      vertex 9.51056 4 -12.1402
      vertex 9.56305 4 -11.9737
    endloop
  endfacet
  facet normal 0 1 0
    outer loop
      vertex 13 4 -14.48
      vertex 9.45518 4 -12.3057
      vertex 9.51056 4 -12.1402
    endloop
  endfacet
  facet normal 0 1 0
    outer loop
      vertex 13 4 -14.48
      vertex 9.39693 4 -12.4702
      vertex 9.45518 4 -12.3057
    endloop
  endfacet
  facet normal 0 1 0
    outer loop
      vertex 13 4 -14.48
      vertex 9.3358 4 -12.6337
      vertex 9.39693 4 -12.4702
    endloop
  endfacet
  facet normal 0 1 0
    outer loop
      vertex 13 4 -14.48
      vertex 9.27184 4 -12.7961
      vertex 9.3358 4 -12.6337
    endloop
  endfacet
  facet normal 0 1 0
    outer loop
      vertex 13 4 -14.48
      vertex 9.20505 4 -12.9573
      vertex 9.27184 4 -12.7961
    endloop
  endfacet
  facet normal 0 1 0
    outer loop
      vertex 13 4 -14.48
      vertex 9.13545 4 -13.1174
      vertex 9.20505 4 -12.9573
    endloop
  endfacet
  facet normal 0 1 0
    outer loop
      vertex 13 4 -14.48
      vertex 9.06308 4 -13.2762
      vertex 9.13545 4 -13.1174
    endloop
  endfacet
  facet normal 0 1 0
    outer loop
      vertex 13 4 -14.48
      vertex 8.98794 4 -13.4337
      vertex 9.06308 4 -13.2762
    endloop
  endfacet
  facet normal 0 1 0
    outer loop
      vertex 13 4 -14.48
      vertex 8.91006 4 -13.5899
      vertex 8.98794 4 -13.4337
    endloop
  endfacet
  facet normal 0 1 0
    outer loop
      vertex 13 4 -14.48
      vertex 8.82948 4 -13.7447
      vertex 8.91006 4 -13.5899
    endloop
  endfacet
  facet normal 0 1 0
    outer loop
      vertex 13 4 -14.48
      vertex 8.7462 4 -13.8981
      vertex 8.82948 4 -13.7447
    endloop
  endfacet
  facet normal 0 1 0
    outer loop
      vertex 13 4 -14.48
      vertex 8.66025 4 -14.05
      vertex 8.7462 4 -13.8981
    endloop
  endfacet
  facet normal 0 1 0
    outer loop
      vertex 13 4 -14.48
      vertex 8.57167 4 -14.2004
      vertex 8.66025 4 -14.05
    endloop
  endfacet
  facet normal 0 1 0
    outer loop
      vertex 13 4 -14.48
      vertex 8.48048 4 -14.3492
      vertex 8.57167 4 -14.2004
    endloop
  endfacet
  facet normal 0 1 0
    outer loop
      vertex 8.48048 4 -14.3492
      vertex 13 4 -14.48
      vertex 8.39715 4 -14.48
    endloop
  endfacet
  facet normal 0 1 -0
    outer loop
      vertex 2.675 4 -7.62939e-07
      vertex -5 4 4
      vertex 4.2536 4 -7.62939e-07
    endloop
  endfacet
  facet normal 0 1 -0
    outer loop
      vertex -2.675 4 -7.62939e-07
      vertex -5 4 4
      vertex 2.675 4 -7.62939e-07
    endloop
  endfacet
  facet normal 0 1 -0
    outer loop
      vertex -4.2536 4 -7.62939e-07
      vertex -5 4 4
      vertex -2.675 4 -7.62939e-07
    endloop
  endfacet
  facet normal 0 1 -0
    outer loop
      vertex -4.38371 4 -0.0620602
      vertex -5 4 4
      vertex -4.2536 4 -7.62939e-07
    endloop
  endfacet
  facet normal 0 1 -0
    outer loop
      vertex -4.5399 4 -0.139935
      vertex -5 4 4
      vertex -4.38371 4 -0.0620602
    endloop
  endfacet
  facet normal 0 1 -0
    outer loop
      vertex -4.69472 4 -0.220525
      vertex -5 4 4
      vertex -4.5399 4 -0.139935
    endloop
  endfacet
  facet normal 0 1 -0
    outer loop
      vertex -4.8481 4 -0.303803
      vertex -5 4 4
      vertex -4.69472 4 -0.220525
    endloop
  endfacet
  facet normal 0 1 0
    outer loop
      vertex -5 4 4
      vertex -4.8481 4 -0.303803
      vertex -5 4 -0.389746
    endloop
  endfacet
  facet normal 0 -1 0
    outer loop
      vertex -2.675 -4 -1.2
      vertex 2.675 -4 -7.62939e-07
      vertex -2.675 -4 -7.62939e-07
    endloop
  endfacet
  facet normal 0 -1 -0
    outer loop
      vertex 2.675 -4 -7.62939e-07
      vertex -2.675 -4 -1.2
      vertex 2.675 -4 -1.2
    endloop
  endfacet
  facet normal 0 -1 0
    outer loop
      vertex -2.675 -4 -7.62939e-07
      vertex -5 -4 4
      vertex -4.2536 -4 -7.62939e-07
    endloop
  endfacet
  facet normal 0 -1 0
    outer loop
      vertex -5 -4 4
      vertex -4.38371 -4 -0.0620602
      vertex -4.2536 -4 -7.62939e-07
    endloop
  endfacet
  facet normal 0 -1 0
    outer loop
      vertex -5 -4 4
      vertex -4.5399 -4 -0.139935
      vertex -4.38371 -4 -0.0620602
    endloop
  endfacet
  facet normal 0 -1 0
    outer loop
      vertex -5 -4 4
      vertex -4.69472 -4 -0.220525
      vertex -4.5399 -4 -0.139935
    endloop
  endfacet
  facet normal 0 -1 0
    outer loop
      vertex -5 -4 4
      vertex -4.8481 -4 -0.303803
      vertex -4.69472 -4 -0.220525
    endloop
  endfacet
  facet normal -0 -1 0
    outer loop
      vertex -4.8481 -4 -0.303803
      vertex -5 -4 4
      vertex -5 -4 -0.389746
    endloop
  endfacet
  facet normal 0 -1 0
    outer loop
      vertex 2.675 -4 -7.62939e-07
      vertex -5 -4 4
      vertex -2.675 -4 -7.62939e-07
    endloop
  endfacet
  facet normal 0 -1 0
    outer loop
      vertex 4.2536 -4 -7.62939e-07
      vertex -5 -4 4
      vertex 2.675 -4 -7.62939e-07
    endloop
  endfacet
  facet normal 0 -1 0
    outer loop
      vertex -5 -4 4
      vertex 4.2536 -4 -7.62939e-07
      vertex 13 -4 4
    endloop
  endfacet
  facet normal 0 -1 0
    outer loop
      vertex 4.38371 -4 -0.0620602
      vertex 13 -4 4
      vertex 4.2536 -4 -7.62939e-07
    endloop
  endfacet
  facet normal 0 -1 0
    outer loop
      vertex 4.5399 -4 -0.139935
      vertex 13 -4 4
      vertex 4.38371 -4 -0.0620602
    endloop
  endfacet
  facet normal 0 -1 0
    outer loop
      vertex 4.69472 -4 -0.220525
      vertex 13 -4 4
      vertex 4.5399 -4 -0.139935
    endloop
  endfacet
  facet normal 0 -1 0
    outer loop
      vertex 4.8481 -4 -0.303803
      vertex 13 -4 4
      vertex 4.69472 -4 -0.220525
    endloop
  endfacet
  facet normal 0 -1 0
    outer loop
      vertex 5 -4 -0.389746
      vertex 13 -4 4
      vertex 4.8481 -4 -0.303803
    endloop
  endfacet
  facet normal 0 -1 0
    outer loop
      vertex 5.15038 -4 -0.478328
      vertex 13 -4 4
      vertex 5 -4 -0.389746
    endloop
  endfacet
  facet normal 0 -1 0
    outer loop
      vertex 5.29919 -4 -0.56952
      vertex 13 -4 4
      vertex 5.15038 -4 -0.478328
    endloop
  endfacet
  facet normal 0 -1 0
    outer loop
      vertex 5.44639 -4 -0.663295
      vertex 13 -4 4
      vertex 5.29919 -4 -0.56952
    endloop
  endfacet
  facet normal 0 -1 0
    outer loop
      vertex 5.59193 -4 -0.759624
      vertex 13 -4 4
      vertex 5.44639 -4 -0.663295
    endloop
  endfacet
  facet normal 0 -1 0
    outer loop
      vertex 5.73576 -4 -0.85848
      vertex 13 -4 4
      vertex 5.59193 -4 -0.759624
    endloop
  endfacet
  facet normal 0 -1 0
    outer loop
      vertex 5.87785 -4 -0.95983
      vertex 13 -4 4
      vertex 5.73576 -4 -0.85848
    endloop
  endfacet
  facet normal 0 -1 0
    outer loop
      vertex 6.01815 -4 -1.06365
      vertex 13 -4 4
      vertex 5.87785 -4 -0.95983
    endloop
  endfacet
  facet normal 0 -1 0
    outer loop
      vertex 6.15661 -4 -1.16989
      vertex 13 -4 4
      vertex 6.01815 -4 -1.06365
    endloop
  endfacet
  facet normal 0 -1 0
    outer loop
      vertex 6.2932 -4 -1.27854
      vertex 13 -4 4
      vertex 6.15661 -4 -1.16989
    endloop
  endfacet
  facet normal 0 -1 0
    outer loop
      vertex 6.42788 -4 -1.38956
      vertex 13 -4 4
      vertex 6.2932 -4 -1.27854
    endloop
  endfacet
  facet normal 0 -1 0
    outer loop
      vertex 6.56059 -4 -1.5029
      vertex 13 -4 4
      vertex 6.42788 -4 -1.38956
    endloop
  endfacet
  facet normal 0 -1 0
    outer loop
      vertex 6.69131 -4 -1.61855
      vertex 13 -4 4
      vertex 6.56059 -4 -1.5029
    endloop
  endfacet
  facet normal 0 -1 0
    outer loop
      vertex 6.81998 -4 -1.73646
      vertex 13 -4 4
      vertex 6.69131 -4 -1.61855
    endloop
  endfacet
  facet normal 0 -1 0
    outer loop
      vertex 6.94658 -4 -1.8566
      vertex 13 -4 4
      vertex 6.81998 -4 -1.73646
    endloop
  endfacet
  facet normal 0 -1 0
    outer loop
      vertex 7.07107 -4 -1.97893
      vertex 13 -4 4
      vertex 6.94658 -4 -1.8566
    endloop
  endfacet
  facet normal 0 -1 0
    outer loop
      vertex 7.1934 -4 -2.10342
      vertex 13 -4 4
      vertex 7.07107 -4 -1.97893
    endloop
  endfacet
  facet normal 0 -1 0
    outer loop
      vertex 7.31354 -4 -2.23002
      vertex 13 -4 4
      vertex 7.1934 -4 -2.10342
    endloop
  endfacet
  facet normal 0 -1 0
    outer loop
      vertex 7.43145 -4 -2.35869
      vertex 13 -4 4
      vertex 7.31354 -4 -2.23002
    endloop
  endfacet
  facet normal 0 -1 0
    outer loop
      vertex 7.5471 -4 -2.48941
      vertex 13 -4 4
      vertex 7.43145 -4 -2.35869
    endloop
  endfacet
  facet normal 0 -1 0
    outer loop
      vertex 7.66044 -4 -2.62212
      vertex 13 -4 4
      vertex 7.5471 -4 -2.48941
    endloop
  endfacet
  facet normal 0 -1 0
    outer loop
      vertex 7.77146 -4 -2.7568
      vertex 13 -4 4
      vertex 7.66044 -4 -2.62212
    endloop
  endfacet
  facet normal 0 -1 0
    outer loop
      vertex 7.88011 -4 -2.89339
      vertex 13 -4 4
      vertex 7.77146 -4 -2.7568
    endloop
  endfacet
  facet normal 0 -1 0
    outer loop
      vertex 7.98635 -4 -3.03185
      vertex 13 -4 4
      vertex 7.88011 -4 -2.89339
    endloop
  endfacet
  facet normal 0 -1 0
    outer loop
      vertex 8.09017 -4 -3.17215
      vertex 13 -4 4
      vertex 7.98635 -4 -3.03185
    endloop
  endfacet
  facet normal 0 -1 0
    outer loop
      vertex 8.19152 -4 -3.31424
      vertex 13 -4 4
      vertex 8.09017 -4 -3.17215
    endloop
  endfacet
  facet normal 0 -1 0
    outer loop
      vertex 8.29038 -4 -3.45807
      vertex 13 -4 4
      vertex 8.19152 -4 -3.31424
    endloop
  endfacet
  facet normal 0 -1 0
    outer loop
      vertex 8.38671 -4 -3.60361
      vertex 13 -4 4
      vertex 8.29038 -4 -3.45807
    endloop
  endfacet
  facet normal 0 -1 0
    outer loop
      vertex 8.48048 -4 -3.75081
      vertex 13 -4 4
      vertex 8.38671 -4 -3.60361
    endloop
  endfacet
  facet normal 0 -1 0
    outer loop
      vertex 8.57167 -4 -3.89962
      vertex 13 -4 4
      vertex 8.48048 -4 -3.75081
    endloop
  endfacet
  facet normal 0 -1 0
    outer loop
      vertex 8.66025 -4 -4.05
      vertex 13 -4 4
      vertex 8.57167 -4 -3.89962
    endloop
  endfacet
  facet normal 0 -1 0
    outer loop
      vertex 8.7462 -4 -4.2019
      vertex 13 -4 4
      vertex 8.66025 -4 -4.05
    endloop
  endfacet
  facet normal 0 -1 0
    outer loop
      vertex 8.82948 -4 -4.35528
      vertex 13 -4 4
      vertex 8.7462 -4 -4.2019
    endloop
  endfacet
  facet normal 0 -1 0
    outer loop
      vertex 8.91006 -4 -4.5101
      vertex 13 -4 4
      vertex 8.82948 -4 -4.35528
    endloop
  endfacet
  facet normal 0 -1 0
    outer loop
      vertex 8.98794 -4 -4.66629
      vertex 13 -4 4
      vertex 8.91006 -4 -4.5101
    endloop
  endfacet
  facet normal 0 -1 0
    outer loop
      vertex 9.06308 -4 -4.82382
      vertex 13 -4 4
      vertex 8.98794 -4 -4.66629
    endloop
  endfacet
  facet normal 0 -1 0
    outer loop
      vertex 9.13545 -4 -4.98263
      vertex 13 -4 4
      vertex 9.06308 -4 -4.82382
    endloop
  endfacet
  facet normal 0 -1 0
    outer loop
      vertex 9.20505 -4 -5.14269
      vertex 13 -4 4
      vertex 9.13545 -4 -4.98263
    endloop
  endfacet
  facet normal 0 -1 0
    outer loop
      vertex 9.27184 -4 -5.30394
      vertex 13 -4 4
      vertex 9.20505 -4 -5.14269
    endloop
  endfacet
  facet normal 0 -1 0
    outer loop
      vertex 9.3358 -4 -5.46632
      vertex 13 -4 4
      vertex 9.27184 -4 -5.30394
    endloop
  endfacet
  facet normal 0 -1 0
    outer loop
      vertex 9.39693 -4 -5.6298
      vertex 13 -4 4
      vertex 9.3358 -4 -5.46632
    endloop
  endfacet
  facet normal 0 -1 0
    outer loop
      vertex 9.45518 -4 -5.79432
      vertex 13 -4 4
      vertex 9.39693 -4 -5.6298
    endloop
  endfacet
  facet normal 0 -1 0
    outer loop
      vertex 9.51056 -4 -5.95983
      vertex 13 -4 4
      vertex 9.45518 -4 -5.79432
    endloop
  endfacet
  facet normal 0 -1 0
    outer loop
      vertex 9.56305 -4 -6.12628
      vertex 13 -4 4
      vertex 9.51056 -4 -5.95983
    endloop
  endfacet
  facet normal 0 -1 0
    outer loop
      vertex 9.61262 -4 -6.29363
      vertex 13 -4 4
      vertex 9.56305 -4 -6.12628
    endloop
  endfacet
  facet normal 0 -1 0
    outer loop
      vertex 9.65926 -4 -6.46181
      vertex 13 -4 4
      vertex 9.61262 -4 -6.29363
    endloop
  endfacet
  facet normal 0 -1 0
    outer loop
      vertex 9.70296 -4 -6.63078
      vertex 13 -4 4
      vertex 9.65926 -4 -6.46181
    endloop
  endfacet
  facet normal 0 -1 0
    outer loop
      vertex 9.7437 -4 -6.80049
      vertex 13 -4 4
      vertex 9.70296 -4 -6.63078
    endloop
  endfacet
  facet normal 0 -1 0
    outer loop
      vertex 9.78148 -4 -6.97088
      vertex 13 -4 4
      vertex 9.7437 -4 -6.80049
    endloop
  endfacet
  facet normal 0 -1 0
    outer loop
      vertex 9.81627 -4 -7.14191
      vertex 13 -4 4
      vertex 9.78148 -4 -6.97088
    endloop
  endfacet
  facet normal 0 -1 0
    outer loop
      vertex 9.84808 -4 -7.31352
      vertex 13 -4 4
      vertex 9.81627 -4 -7.14191
    endloop
  endfacet
  facet normal 0 -1 0
    outer loop
      vertex 9.87688 -4 -7.48566
      vertex 13 -4 4
      vertex 9.84808 -4 -7.31352
    endloop
  endfacet
  facet normal 0 -1 0
    outer loop
      vertex 13 -4 -14.48
      vertex 9.87688 -4 -7.48566
      vertex 9.90268 -4 -7.65827
    endloop
  endfacet
  facet normal 0 -1 0
    outer loop
      vertex 13 -4 -14.48
      vertex 9.90268 -4 -7.65827
      vertex 9.92546 -4 -7.83131
    endloop
  endfacet
  facet normal 0 -1 0
    outer loop
      vertex 13 -4 -14.48
      vertex 9.92546 -4 -7.83131
      vertex 9.94522 -4 -8.00472
    endloop
  endfacet
  facet normal 0 -1 0
    outer loop
      vertex 13 -4 -14.48
      vertex 9.94522 -4 -8.00472
      vertex 9.96195 -4 -8.17844
    endloop
  endfacet
  facet normal 0 -1 0
    outer loop
      vertex 13 -4 -14.48
      vertex 9.96195 -4 -8.17844
      vertex 9.97564 -4 -8.35244
    endloop
  endfacet
  facet normal 0 -1 0
    outer loop
      vertex 13 -4 -14.48
      vertex 9.97564 -4 -8.35244
      vertex 9.98629 -4 -8.52664
    endloop
  endfacet
  facet normal 0 -1 0
    outer loop
      vertex 13 -4 -14.48
      vertex 9.98629 -4 -8.52664
      vertex 9.99391 -4 -8.70101
    endloop
  endfacet
  facet normal 0 -1 0
    outer loop
      vertex 13 -4 -14.48
      vertex 9.99391 -4 -8.70101
      vertex 9.99848 -4 -8.87548
    endloop
  endfacet
  facet normal 0 -1 0
    outer loop
      vertex 13 -4 -14.48
      vertex 9.99848 -4 -8.87548
      vertex 10 -4 -9.05
    endloop
  endfacet
  facet normal 0 -1 0
    outer loop
      vertex 13 -4 -14.48
      vertex 10 -4 -9.05
      vertex 9.99848 -4 -9.22452
    endloop
  endfacet
  facet normal 0 -1 0
    outer loop
      vertex 13 -4 -14.48
      vertex 9.99848 -4 -9.22452
      vertex 9.99391 -4 -9.39899
    endloop
  endfacet
  facet normal 0 -1 0
    outer loop
      vertex 13 -4 -14.48
      vertex 9.99391 -4 -9.39899
      vertex 9.98629 -4 -9.57336
    endloop
  endfacet
  facet normal 0 -1 0
    outer loop
      vertex 13 -4 -14.48
      vertex 9.98629 -4 -9.57336
      vertex 9.97564 -4 -9.74756
    endloop
  endfacet
  facet normal 0 -1 0
    outer loop
      vertex 13 -4 -14.48
      vertex 9.97564 -4 -9.74756
      vertex 9.96195 -4 -9.92156
    endloop
  endfacet
  facet normal 0 -1 0
    outer loop
      vertex 13 -4 -14.48
      vertex 9.96195 -4 -9.92156
      vertex 9.94522 -4 -10.0953
    endloop
  endfacet
  facet normal 0 -1 0
    outer loop
      vertex 13 -4 -14.48
      vertex 9.94522 -4 -10.0953
      vertex 9.92546 -4 -10.2687
    endloop
  endfacet
  facet normal 0 -1 0
    outer loop
      vertex 13 -4 -14.48
      vertex 9.92546 -4 -10.2687
      vertex 9.90268 -4 -10.4417
    endloop
  endfacet
  facet normal 0 -1 0
    outer loop
      vertex 13 -4 -14.48
      vertex 9.90268 -4 -10.4417
      vertex 9.87688 -4 -10.6143
    endloop
  endfacet
  facet normal 0 -1 0
    outer loop
      vertex 13 -4 -14.48
      vertex 9.87688 -4 -10.6143
      vertex 9.84808 -4 -10.7865
    endloop
  endfacet
  facet normal 0 -1 0
    outer loop
      vertex 13 -4 -14.48
      vertex 9.84808 -4 -10.7865
      vertex 9.81627 -4 -10.9581
    endloop
  endfacet
  facet normal 0 -1 0
    outer loop
      vertex 13 -4 -14.48
      vertex 9.81627 -4 -10.9581
      vertex 9.78148 -4 -11.1291
    endloop
  endfacet
  facet normal 0 -1 0
    outer loop
      vertex 9.87688 -4 -7.48566
      vertex 13 -4 -14.48
      vertex 13 -4 4
    endloop
  endfacet
  facet normal 0 -1 0
    outer loop
      vertex 9.7437 -4 -11.2995
      vertex 13 -4 -14.48
      vertex 9.78148 -4 -11.1291
    endloop
  endfacet
  facet normal 0 -1 0
    outer loop
      vertex 9.70296 -4 -11.4692
      vertex 13 -4 -14.48
      vertex 9.7437 -4 -11.2995
    endloop
  endfacet
  facet normal 0 -1 0
    outer loop
      vertex 9.65926 -4 -11.6382
      vertex 13 -4 -14.48
      vertex 9.70296 -4 -11.4692
    endloop
  endfacet
  facet normal 0 -1 0
    outer loop
      vertex 9.61262 -4 -11.8064
      vertex 13 -4 -14.48
      vertex 9.65926 -4 -11.6382
    endloop
  endfacet
  facet normal 0 -1 0
    outer loop
      vertex 9.56305 -4 -11.9737
      vertex 13 -4 -14.48
      vertex 9.61262 -4 -11.8064
    endloop
  endfacet
  facet normal 0 -1 0
    outer loop
      vertex 9.51056 -4 -12.1402
      vertex 13 -4 -14.48
      vertex 9.56305 -4 -11.9737
    endloop
  endfacet
  facet normal 0 -1 0
    outer loop
      vertex 9.45518 -4 -12.3057
      vertex 13 -4 -14.48
      vertex 9.51056 -4 -12.1402
    endloop
  endfacet
  facet normal 0 -1 0
    outer loop
      vertex 9.39693 -4 -12.4702
      vertex 13 -4 -14.48
      vertex 9.45518 -4 -12.3057
    endloop
  endfacet
  facet normal 0 -1 0
    outer loop
      vertex 9.3358 -4 -12.6337
      vertex 13 -4 -14.48
      vertex 9.39693 -4 -12.4702
    endloop
  endfacet
  facet normal 0 -1 0
    outer loop
      vertex 9.27184 -4 -12.7961
      vertex 13 -4 -14.48
      vertex 9.3358 -4 -12.6337
    endloop
  endfacet
  facet normal 0 -1 0
    outer loop
      vertex 9.20505 -4 -12.9573
      vertex 13 -4 -14.48
      vertex 9.27184 -4 -12.7961
    endloop
  endfacet
  facet normal 0 -1 0
    outer loop
      vertex 9.13545 -4 -13.1174
      vertex 13 -4 -14.48
      vertex 9.20505 -4 -12.9573
    endloop
  endfacet
  facet normal 0 -1 0
    outer loop
      vertex 9.06308 -4 -13.2762
      vertex 13 -4 -14.48
      vertex 9.13545 -4 -13.1174
    endloop
  endfacet
  facet normal 0 -1 0
    outer loop
      vertex 8.98794 -4 -13.4337
      vertex 13 -4 -14.48
      vertex 9.06308 -4 -13.2762
    endloop
  endfacet
  facet normal 0 -1 0
    outer loop
      vertex 8.91006 -4 -13.5899
      vertex 13 -4 -14.48
      vertex 8.98794 -4 -13.4337
    endloop
  endfacet
  facet normal 0 -1 0
    outer loop
      vertex 8.82948 -4 -13.7447
      vertex 13 -4 -14.48
      vertex 8.91006 -4 -13.5899
    endloop
  endfacet
  facet normal 0 -1 0
    outer loop
      vertex 8.7462 -4 -13.8981
      vertex 13 -4 -14.48
      vertex 8.82948 -4 -13.7447
    endloop
  endfacet
  facet normal 0 -1 0
    outer loop
      vertex 8.66025 -4 -14.05
      vertex 13 -4 -14.48
      vertex 8.7462 -4 -13.8981
    endloop
  endfacet
  facet normal 0 -1 0
    outer loop
      vertex 8.57167 -4 -14.2004
      vertex 13 -4 -14.48
      vertex 8.66025 -4 -14.05
    endloop
  endfacet
  facet normal 0 -1 0
    outer loop
      vertex 8.48048 -4 -14.3492
      vertex 13 -4 -14.48
      vertex 8.57167 -4 -14.2004
    endloop
  endfacet
  facet normal 0 -1 0
    outer loop
      vertex 13 -4 -14.48
      vertex 8.48048 -4 -14.3492
      vertex 8.39715 -4 -14.48
    endloop
  endfacet
  facet normal 0 -1 0
    outer loop
      vertex -4 -4 -4.3
      vertex -2.675 -4 -1.2
      vertex -4 -4 -1.2
    endloop
  endfacet
  facet normal 0 -1 -0
    outer loop
      vertex -2.675 -4 -1.2
      vertex -4 -4 -4.3
      vertex 2.675 -4 -1.2
    endloop
  endfacet
  facet normal 0 -1 0
    outer loop
      vertex 4 -4 -4.3
      vertex 2.675 -4 -1.2
      vertex -4 -4 -4.3
    endloop
  endfacet
  facet normal 0 -1 0
    outer loop
      vertex 2.675 -4 -1.2
      vertex 4 -4 -4.3
      vertex 4 -4 -1.2
    endloop
  endfacet
  facet normal 1 -0 0
    outer loop
      vertex 2.675 -4 -7.62939e-07
      vertex 2.675 4 -1.2
      vertex 2.675 4 -7.62939e-07
    endloop
  endfacet
  facet normal 1 0 0
    outer loop
      vertex 2.675 4 -1.2
      vertex 2.675 -4 -7.62939e-07
      vertex 2.675 -4 -1.2
    endloop
  endfacet
  facet normal -1 0 0
    outer loop
      vertex -2.675 -4 -1.2
      vertex -2.675 4 -7.62939e-07
      vertex -2.675 4 -1.2
    endloop
  endfacet
  facet normal -1 -0 0
    outer loop
      vertex -2.675 4 -7.62939e-07
      vertex -2.675 -4 -1.2
      vertex -2.675 -4 -7.62939e-07
    endloop
  endfacet
  facet normal 1 -0 0
    outer loop
      vertex 13 -4 4
      vertex 13 4 -14.48
      vertex 13 4 4
    endloop
  endfacet
  facet normal 1 0 0
    outer loop
      vertex 13 4 -14.48
      vertex 13 -4 4
      vertex 13 -4 -14.48
    endloop
  endfacet
  facet normal -0 0 1
    outer loop
      vertex -5 4 4
      vertex 13 -4 4
      vertex 13 4 4
    endloop
  endfacet
  facet normal 0 0 1
    outer loop
      vertex 13 -4 4
      vertex -5 4 4
      vertex -5 -4 4
    endloop
  endfacet
  facet normal 0 0 -1
    outer loop
      vertex 8.39715 -4 -14.48
      vertex 13 4 -14.48
      vertex 13 -4 -14.48
    endloop
  endfacet
  facet normal -0 0 -1
    outer loop
      vertex 13 4 -14.48
      vertex 8.39715 -4 -14.48
      vertex 8.39715 4 -14.48
    endloop
  endfacet
  facet normal -1 0 0
    outer loop
      vertex -5 -4 -0.389746
      vertex -5 4 4
      vertex -5 4 -0.389746
    endloop
  endfacet
  facet normal -1 -0 0
    outer loop
      vertex -5 4 4
      vertex -5 -4 -0.389746
      vertex -5 -4 4
    endloop
  endfacet
endsolid OpenSCAD_Model
